<?xml version="1.0" encoding="UTF-8" standalone="no"?>
<!DOCTYPE svg PUBLIC "-//W3C//DTD SVG 1.1//EN"
 "http://www.w3.org/Graphics/SVG/1.1/DTD/svg11.dtd">
<!-- Generated by graphviz version 2.26.3 (20100126.1600)
 -->
<!-- Title: _anonymous_0 Pages: 1 -->
<svg width="1100pt" height="610pt"
 viewBox="0.00 0.00 1100.00 610.00" xmlns="http://www.w3.org/2000/svg" xmlns:xlink="http://www.w3.org/1999/xlink">
<g id="graph1" class="graph" transform="scale(1 1) rotate(0) translate(4 606)">
<title>_anonymous_0</title>
<polygon fill="white" stroke="white" points="-4,5 -4,-606 1097,-606 1097,5 -4,5"/>
<!-- 1 -->
<g id="node1" class="node"><title>1</title>
<polygon fill="#eb7c03" stroke="#eb7c03" points="460,-510 102,-510 102,-450 460,-450 460,-510"/>
<text text-anchor="middle" x="281" y="-497" font-family="Arial" font-size="10.00" fill="#ffffff">std::vector&lt;bool, std::allocator&lt;bool&gt; &gt;::_M_insert_aux(std::_Bit_iterator, bool)</text>
<text text-anchor="middle" x="281" y="-484" font-family="Arial" font-size="10.00" fill="#ffffff">86.96%</text>
<text text-anchor="middle" x="281" y="-471" font-family="Arial" font-size="10.00" fill="#ffffff">(0.00%)</text>
<text text-anchor="middle" x="281" y="-458" font-family="Arial" font-size="10.00" fill="#ffffff">9×</text>
</g>
<!-- 16 -->
<g id="node3" class="node"><title>16</title>
<polygon fill="#0d1976" stroke="#0d1976" points="234,-406 142,-406 142,-346 234,-346 234,-406"/>
<text text-anchor="middle" x="188" y="-393" font-family="Arial" font-size="10.00" fill="#ffffff">Lattice::~Lattice()</text>
<text text-anchor="middle" x="188" y="-380" font-family="Arial" font-size="10.00" fill="#ffffff">2.90%</text>
<text text-anchor="middle" x="188" y="-367" font-family="Arial" font-size="10.00" fill="#ffffff">(2.90%)</text>
<text text-anchor="middle" x="188" y="-354" font-family="Arial" font-size="10.00" fill="#ffffff">6189×</text>
</g>
<!-- 1&#45;&gt;16 -->
<g id="edge2" class="edge"><title>1&#45;&gt;16</title>
<path fill="none" stroke="#0d1976" stroke-width="0.5" d="M226.067,-449.856C222.813,-447.08 219.75,-444.126 217,-441 209.011,-431.92 202.892,-420.282 198.38,-409.369"/>
<polygon fill="#0d1976" stroke="#0d1976" points="199.472,-408.801 197.031,-406.009 197.199,-409.713 199.472,-408.801"/>
<text text-anchor="middle" x="231" y="-432" font-family="Arial" font-size="10.00" fill="#0d1976">2.90%</text>
<text text-anchor="middle" x="231" y="-419" font-family="Arial" font-size="10.00" fill="#0d1976">6189×</text>
</g>
<!-- 3 -->
<g id="node5" class="node"><title>3</title>
<polygon fill="#0ba165" stroke="#0ba165" points="156,-302 24,-302 24,-242 156,-242 156,-302"/>
<text text-anchor="middle" x="90" y="-289" font-family="Arial" font-size="10.00" fill="#ffffff">Lattice::Lattice(int, double)</text>
<text text-anchor="middle" x="90" y="-276" font-family="Arial" font-size="10.00" fill="#ffffff">34.93%</text>
<text text-anchor="middle" x="90" y="-263" font-family="Arial" font-size="10.00" fill="#ffffff">(7.25%)</text>
<text text-anchor="middle" x="90" y="-250" font-family="Arial" font-size="10.00" fill="#ffffff">6204×</text>
</g>
<!-- 1&#45;&gt;3 -->
<g id="edge4" class="edge"><title>1&#45;&gt;3</title>
<path fill="none" stroke="#0ba165" stroke-width="1.4" d="M278.09,-449.844C273.817,-420.32 263.367,-375.583 238,-346 232.12,-339.143 196.295,-321.162 161.368,-304.643"/>
<polygon fill="#0ba165" stroke="#0ba165" points="161.992,-302.654 155.774,-302.006 160.231,-306.39 161.992,-302.654"/>
<text text-anchor="middle" x="286" y="-380" font-family="Arial" font-size="10.00" fill="#0ba165">34.93%</text>
<text text-anchor="middle" x="286" y="-367" font-family="Arial" font-size="10.00" fill="#0ba165">6204×</text>
</g>
<!-- 4 -->
<g id="node7" class="node"><title>4</title>
<polygon fill="#0c9a7e" stroke="#0c9a7e" points="453,-406 341,-406 341,-346 453,-346 453,-406"/>
<text text-anchor="middle" x="397" y="-393" font-family="Arial" font-size="10.00" fill="#ffffff">Lattice::correctMesh()</text>
<text text-anchor="middle" x="397" y="-380" font-family="Arial" font-size="10.00" fill="#ffffff">29.98%</text>
<text text-anchor="middle" x="397" y="-367" font-family="Arial" font-size="10.00" fill="#ffffff">(7.25%)</text>
<text text-anchor="middle" x="397" y="-354" font-family="Arial" font-size="10.00" fill="#ffffff">5691×</text>
</g>
<!-- 1&#45;&gt;4 -->
<g id="edge6" class="edge"><title>1&#45;&gt;4</title>
<path fill="none" stroke="#0c9a7e" stroke-width="1.2" d="M314.552,-449.919C328.499,-437.415 344.755,-422.841 359.128,-409.954"/>
<polygon fill="#0c9a7e" stroke="#0c9a7e" points="360.713,-411.118 363.523,-406.014 358.143,-408.252 360.713,-411.118"/>
<text text-anchor="middle" x="369" y="-432" font-family="Arial" font-size="10.00" fill="#0c9a7e">29.98%</text>
<text text-anchor="middle" x="369" y="-419" font-family="Arial" font-size="10.00" fill="#0c9a7e">5691×</text>
</g>
<!-- 7 -->
<g id="node9" class="node"><title>7</title>
<polygon fill="#0c6e8c" stroke="#0c6e8c" points="825,-406 689,-406 689,-346 825,-346 825,-406"/>
<text text-anchor="middle" x="757" y="-393" font-family="Arial" font-size="10.00" fill="#ffffff">Lattice::success(Operator*)</text>
<text text-anchor="middle" x="757" y="-380" font-family="Arial" font-size="10.00" fill="#ffffff">19.15%</text>
<text text-anchor="middle" x="757" y="-367" font-family="Arial" font-size="10.00" fill="#ffffff">(7.97%)</text>
<text text-anchor="middle" x="757" y="-354" font-family="Arial" font-size="10.00" fill="#ffffff">6083×</text>
</g>
<!-- 1&#45;&gt;7 -->
<g id="edge8" class="edge"><title>1&#45;&gt;7</title>
<path fill="none" stroke="#0c6e8c" stroke-width="0.77" d="M418.36,-449.989C505.153,-431.025 613.835,-407.28 684.307,-391.882"/>
<polygon fill="#0c6e8c" stroke="#0c6e8c" points="684.923,-393.324 688.893,-390.88 684.266,-390.315 684.923,-393.324"/>
<text text-anchor="middle" x="592" y="-432" font-family="Arial" font-size="10.00" fill="#0c6e8c">19.15%</text>
<text text-anchor="middle" x="592" y="-419" font-family="Arial" font-size="10.00" fill="#0c6e8c">6083×</text>
</g>
<!-- 11 -->
<g id="node13" class="node"><title>11</title>
<polygon fill="#0d267a" stroke="#0d267a" points="174,-164 8.52651e-14,-164 0,-104 174,-104 174,-164"/>
<text text-anchor="middle" x="87" y="-151" font-family="Arial" font-size="10.00" fill="#ffffff">Operator::Operator(Operator const&amp;)</text>
<text text-anchor="middle" x="87" y="-138" font-family="Arial" font-size="10.00" fill="#ffffff">5.67%</text>
<text text-anchor="middle" x="87" y="-125" font-family="Arial" font-size="10.00" fill="#ffffff">(2.17%)</text>
<text text-anchor="middle" x="87" y="-112" font-family="Arial" font-size="10.00" fill="#ffffff">2976036×</text>
</g>
<!-- 3&#45;&gt;11 -->
<g id="edge12" class="edge"><title>3&#45;&gt;11</title>
<path fill="none" stroke="#0d267a" stroke-width="0.5" d="M89.3416,-241.715C88.8668,-219.875 88.2257,-190.383 87.7344,-167.78"/>
<polygon fill="#0d267a" stroke="#0d267a" points="88.9577,-167.687 87.6568,-164.214 86.5083,-167.74 88.9577,-167.687"/>
<text text-anchor="middle" x="111.5" y="-207" font-family="Arial" font-size="10.00" fill="#0d267a">5.67%</text>
<text text-anchor="middle" x="111.5" y="-194" font-family="Arial" font-size="10.00" fill="#0d267a">2976036×</text>
</g>
<!-- 5 -->
<g id="node15" class="node"><title>5</title>
<polygon fill="#0c8791" stroke="#0c8791" points="480,-164 366,-164 366,-104 480,-104 480,-164"/>
<text text-anchor="middle" x="423" y="-151" font-family="Arial" font-size="10.00" fill="#ffffff">Operator::Operator(int)</text>
<text text-anchor="middle" x="423" y="-138" font-family="Arial" font-size="10.00" fill="#ffffff">23.11%</text>
<text text-anchor="middle" x="423" y="-125" font-family="Arial" font-size="10.00" fill="#ffffff">(7.97%)</text>
<text text-anchor="middle" x="423" y="-112" font-family="Arial" font-size="10.00" fill="#ffffff">7956836×</text>
</g>
<!-- 3&#45;&gt;5 -->
<g id="edge14" class="edge"><title>3&#45;&gt;5</title>
<path fill="none" stroke="#0c6189" stroke-width="0.68" d="M156.136,-243.027C157.429,-242.666 158.718,-242.323 160,-242 204.134,-230.897 218.796,-247.301 262,-233 306.332,-218.326 351.13,-189.372 382.176,-166.549"/>
<polygon fill="#0c6189" stroke="#0c6189" points="383.071,-167.672 385.514,-164.08 381.364,-165.365 383.071,-167.672"/>
<text text-anchor="middle" x="393.5" y="-207" font-family="Arial" font-size="10.00" fill="#0c6189">16.94%</text>
<text text-anchor="middle" x="393.5" y="-194" font-family="Arial" font-size="10.00" fill="#0c6189">5833042×</text>
</g>
<!-- 13 -->
<g id="node17" class="node"><title>13</title>
<polygon fill="#0d2379" stroke="#0d2379" points="357,-164 183,-164 183,-104 357,-104 357,-164"/>
<text text-anchor="middle" x="270" y="-151" font-family="Arial" font-size="10.00" fill="#ffffff">Operator::generateRandom(double&amp;)</text>
<text text-anchor="middle" x="270" y="-138" font-family="Arial" font-size="10.00" fill="#ffffff">5.07%</text>
<text text-anchor="middle" x="270" y="-125" font-family="Arial" font-size="10.00" fill="#ffffff">(5.07%)</text>
<text text-anchor="middle" x="270" y="-112" font-family="Arial" font-size="10.00" fill="#ffffff">2903099×</text>
</g>
<!-- 3&#45;&gt;13 -->
<g id="edge16" class="edge"><title>3&#45;&gt;13</title>
<path fill="none" stroke="#0d2379" stroke-width="0.5" d="M129.502,-241.715C158.575,-219.425 198.044,-189.166 227.747,-166.394"/>
<polygon fill="#0d2379" stroke="#0d2379" points="228.558,-167.316 230.59,-164.214 227.067,-165.371 228.558,-167.316"/>
<text text-anchor="middle" x="238.5" y="-207" font-family="Arial" font-size="10.00" fill="#0d2379">5.07%</text>
<text text-anchor="middle" x="238.5" y="-194" font-family="Arial" font-size="10.00" fill="#0d2379">2903099×</text>
</g>
<!-- 8 -->
<g id="node19" class="node"><title>8</title>
<polygon fill="#0c6189" stroke="#0c6189" points="502,-302 340,-302 340,-242 502,-242 502,-302"/>
<text text-anchor="middle" x="421" y="-289" font-family="Arial" font-size="10.00" fill="#ffffff">Lattice::SQsyndromeZZZZ(int, int)</text>
<text text-anchor="middle" x="421" y="-276" font-family="Arial" font-size="10.00" fill="#ffffff">17.05%</text>
<text text-anchor="middle" x="421" y="-263" font-family="Arial" font-size="10.00" fill="#ffffff">(11.59%)</text>
<text text-anchor="middle" x="421" y="-250" font-family="Arial" font-size="10.00" fill="#ffffff">744702×</text>
</g>
<!-- 4&#45;&gt;8 -->
<g id="edge18" class="edge"><title>4&#45;&gt;8</title>
<path fill="none" stroke="#0c6189" stroke-width="0.68" d="M403.942,-345.919C406.803,-333.522 410.133,-319.092 413.087,-306.288"/>
<polygon fill="#0c6189" stroke="#0c6189" points="414.55,-306.331 414.074,-302.014 411.754,-305.686 414.55,-306.331"/>
<text text-anchor="middle" x="430" y="-328" font-family="Arial" font-size="10.00" fill="#0c6189">17.05%</text>
<text text-anchor="middle" x="430" y="-315" font-family="Arial" font-size="10.00" fill="#0c6189">744702×</text>
</g>
<!-- 19 -->
<g id="node21" class="node"><title>19</title>
<polygon fill="#0d1074" stroke="#0d1074" points="331,-302 165,-302 165,-242 331,-242 331,-302"/>
<text text-anchor="middle" x="248" y="-289" font-family="Arial" font-size="10.00" fill="#ffffff">Lattice::correctLine(int, int, int, int)</text>
<text text-anchor="middle" x="248" y="-276" font-family="Arial" font-size="10.00" fill="#ffffff">0.72%</text>
<text text-anchor="middle" x="248" y="-263" font-family="Arial" font-size="10.00" fill="#ffffff">(0.72%)</text>
<text text-anchor="middle" x="248" y="-250" font-family="Arial" font-size="10.00" fill="#ffffff">64765×</text>
</g>
<!-- 4&#45;&gt;19 -->
<g id="edge20" class="edge"><title>4&#45;&gt;19</title>
<path fill="none" stroke="#0d1074" stroke-width="0.5" d="M353.903,-345.919C335.216,-332.876 313.303,-317.58 294.273,-304.298"/>
<polygon fill="#0d1074" stroke="#0d1074" points="294.571,-303.012 291,-302.014 293.169,-305.021 294.571,-303.012"/>
<text text-anchor="middle" x="356.5" y="-328" font-family="Arial" font-size="10.00" fill="#0d1074">0.72%</text>
<text text-anchor="middle" x="356.5" y="-315" font-family="Arial" font-size="10.00" fill="#0d1074">64765×</text>
</g>
<!-- 14 -->
<g id="node23" class="node"><title>14</title>
<polygon fill="#0d2279" stroke="#0d2279" points="699,-302 511,-302 511,-242 699,-242 699,-302"/>
<text text-anchor="middle" x="605" y="-289" font-family="Arial" font-size="10.00" fill="#ffffff">Lattice::OCTsyndromeZZZZZZZZ(int, int)</text>
<text text-anchor="middle" x="605" y="-276" font-family="Arial" font-size="10.00" fill="#ffffff">4.95%</text>
<text text-anchor="middle" x="605" y="-263" font-family="Arial" font-size="10.00" fill="#ffffff">(2.17%)</text>
<text text-anchor="middle" x="605" y="-250" font-family="Arial" font-size="10.00" fill="#ffffff">371562×</text>
</g>
<!-- 4&#45;&gt;14 -->
<g id="edge22" class="edge"><title>4&#45;&gt;14</title>
<path fill="none" stroke="#0d2279" stroke-width="0.5" d="M453.014,-347.993C480.301,-334.349 513.234,-317.883 541.457,-303.771"/>
<polygon fill="#0d2279" stroke="#0d2279" points="542.292,-304.724 544.875,-302.063 541.197,-302.532 542.292,-304.724"/>
<text text-anchor="middle" x="544" y="-328" font-family="Arial" font-size="10.00" fill="#0d2279">4.95%</text>
<text text-anchor="middle" x="544" y="-315" font-family="Arial" font-size="10.00" fill="#0d2279">371562×</text>
</g>
<!-- 12 -->
<g id="node27" class="node"><title>12</title>
<polygon fill="#0d2379" stroke="#0d2379" points="873,-302 727,-302 727,-242 873,-242 873,-302"/>
<text text-anchor="middle" x="800" y="-289" font-family="Arial" font-size="10.00" fill="#ffffff">Lattice::getLogical(std::string)</text>
<text text-anchor="middle" x="800" y="-276" font-family="Arial" font-size="10.00" fill="#ffffff">5.11%</text>
<text text-anchor="middle" x="800" y="-263" font-family="Arial" font-size="10.00" fill="#ffffff">(5.07%)</text>
<text text-anchor="middle" x="800" y="-250" font-family="Arial" font-size="10.00" fill="#ffffff">12176×</text>
</g>
<!-- 7&#45;&gt;12 -->
<g id="edge26" class="edge"><title>7&#45;&gt;12</title>
<path fill="none" stroke="#0d2379" stroke-width="0.5" d="M769.437,-345.919C774.697,-333.199 780.841,-318.337 786.236,-305.289"/>
<polygon fill="#0d2379" stroke="#0d2379" points="787.385,-305.716 787.591,-302.014 785.121,-304.78 787.385,-305.716"/>
<text text-anchor="middle" x="799.5" y="-328" font-family="Arial" font-size="10.00" fill="#0d2379">5.11%</text>
<text text-anchor="middle" x="799.5" y="-315" font-family="Arial" font-size="10.00" fill="#0d2379">12176×</text>
</g>
<!-- 15 -->
<g id="node29" class="node"><title>15</title>
<polygon fill="#0d1d78" stroke="#0d1d78" points="780,-233 644,-233 644,-173 780,-173 780,-233"/>
<text text-anchor="middle" x="712" y="-220" font-family="Arial" font-size="10.00" fill="#ffffff">Operator::pushBack(pauli&amp;)</text>
<text text-anchor="middle" x="712" y="-207" font-family="Arial" font-size="10.00" fill="#ffffff">3.76%</text>
<text text-anchor="middle" x="712" y="-194" font-family="Arial" font-size="10.00" fill="#ffffff">(3.62%)</text>
<text text-anchor="middle" x="712" y="-181" font-family="Arial" font-size="10.00" fill="#ffffff">5725387×</text>
</g>
<!-- 7&#45;&gt;15 -->
<g id="edge28" class="edge"><title>7&#45;&gt;15</title>
<path fill="none" stroke="#0d1d78" stroke-width="0.5" d="M732.383,-345.773C730.718,-342.909 729.221,-339.965 728,-337 714.723,-304.76 711.476,-264.72 711.084,-236.844"/>
<polygon fill="#0d1d78" stroke="#0d1d78" points="712.307,-236.653 711.047,-233.165 709.857,-236.677 712.307,-236.653"/>
<text text-anchor="middle" x="749.5" y="-328" font-family="Arial" font-size="10.00" fill="#0d1d78">3.76%</text>
<text text-anchor="middle" x="749.5" y="-315" font-family="Arial" font-size="10.00" fill="#0d1d78">5725387×</text>
</g>
<!-- 17 -->
<g id="node31" class="node"><title>17</title>
<polygon fill="#0d1676" stroke="#0d1676" points="1092,-302 882,-302 882,-242 1092,-242 1092,-302"/>
<text text-anchor="middle" x="987" y="-289" font-family="Arial" font-size="10.00" fill="#ffffff">operator*(Operator const&amp;, Operator const&amp;)</text>
<text text-anchor="middle" x="987" y="-276" font-family="Arial" font-size="10.00" fill="#ffffff">2.24%</text>
<text text-anchor="middle" x="987" y="-263" font-family="Arial" font-size="10.00" fill="#ffffff">(2.17%)</text>
<text text-anchor="middle" x="987" y="-250" font-family="Arial" font-size="10.00" fill="#ffffff">5656×</text>
</g>
<!-- 7&#45;&gt;17 -->
<g id="edge30" class="edge"><title>7&#45;&gt;17</title>
<path fill="none" stroke="#0d1676" stroke-width="0.5" d="M823.526,-345.919C852.967,-332.606 887.597,-316.947 917.387,-303.477"/>
<polygon fill="#0d1676" stroke="#0d1676" points="917.94,-304.572 920.624,-302.014 916.93,-302.339 917.94,-304.572"/>
<text text-anchor="middle" x="913" y="-328" font-family="Arial" font-size="10.00" fill="#0d1676">2.24%</text>
<text text-anchor="middle" x="913" y="-315" font-family="Arial" font-size="10.00" fill="#0d1676">5656×</text>
</g>
<!-- 2 -->
<g id="node10" class="node"><title>2</title>
<polygon fill="#eb7c03" stroke="#eb7c03" points="325,-601.5 237,-601.5 237,-554.5 325,-554.5 325,-601.5"/>
<text text-anchor="middle" x="281" y="-588.5" font-family="Arial" font-size="10.00" fill="#ffffff">Simulation::run()</text>
<text text-anchor="middle" x="281" y="-575.5" font-family="Arial" font-size="10.00" fill="#ffffff">86.96%</text>
<text text-anchor="middle" x="281" y="-562.5" font-family="Arial" font-size="10.00" fill="#ffffff">(0.00%)</text>
</g>
<!-- 2&#45;&gt;1 -->
<g id="edge10" class="edge"><title>2&#45;&gt;1</title>
<path fill="none" stroke="#eb7c03" stroke-width="3.48" d="M281,-554.277C281,-543.921 281,-531.491 281,-519.788"/>
<polygon fill="#eb7c03" stroke="#eb7c03" points="284.255,-519.49 281,-510.19 277.745,-519.49 284.255,-519.49"/>
<text text-anchor="middle" x="298" y="-536" font-family="Arial" font-size="10.00" fill="#eb7c03">86.96%</text>
<text text-anchor="middle" x="298" y="-523" font-family="Arial" font-size="10.00" fill="#eb7c03">9×</text>
</g>
<!-- 6 -->
<g id="node25" class="node"><title>6</title>
<polygon fill="#0c6c8b" stroke="#0c6c8b" points="760,-60 86,-60 86,-3.19744e-14 760,-1.06581e-14 760,-60"/>
<text text-anchor="middle" x="423" y="-47" font-family="Arial" font-size="10.00" fill="#ffffff">std::vector&lt;pauli, std::allocator&lt;pauli&gt; &gt;::_M_insert_aux(__gnu_cxx::__normal_iterator&lt;pauli*, std::vector&lt;pauli, std::allocator&lt;pauli&gt; &gt; &gt;, pauli const&amp;)</text>
<text text-anchor="middle" x="423" y="-34" font-family="Arial" font-size="10.00" fill="#ffffff">18.84%</text>
<text text-anchor="middle" x="423" y="-21" font-family="Arial" font-size="10.00" fill="#ffffff">(18.84%)</text>
<text text-anchor="middle" x="423" y="-8" font-family="Arial" font-size="10.00" fill="#ffffff">16144564×</text>
</g>
<!-- 11&#45;&gt;6 -->
<g id="edge36" class="edge"><title>11&#45;&gt;6</title>
<path fill="none" stroke="#0d1c77" stroke-width="0.5" d="M174.166,-105.214C175.452,-104.806 176.731,-104.401 178,-104 223.837,-89.5248 274.685,-74.0688 318.124,-61.046"/>
<polygon fill="#0d1c77" stroke="#0d1c77" points="318.503,-62.2114 321.504,-60.0332 317.799,-59.8645 318.503,-62.2114"/>
<text text-anchor="middle" x="307.5" y="-86" font-family="Arial" font-size="10.00" fill="#0d1c77">3.50%</text>
<text text-anchor="middle" x="307.5" y="-73" font-family="Arial" font-size="10.00" fill="#0d1c77">2998596×</text>
</g>
<!-- 5&#45;&gt;6 -->
<g id="edge24" class="edge"><title>5&#45;&gt;6</title>
<path fill="none" stroke="#0c5686" stroke-width="0.61" d="M423,-103.919C423,-91.4146 423,-76.8406 423,-63.9543"/>
<polygon fill="#0c5686" stroke="#0c5686" points="424.365,-63.9135 423,-60.0135 421.635,-63.9135 424.365,-63.9135"/>
<text text-anchor="middle" x="447" y="-86" font-family="Arial" font-size="10.00" fill="#0c5686">15.14%</text>
<text text-anchor="middle" x="447" y="-73" font-family="Arial" font-size="10.00" fill="#0c5686">12971191×</text>
</g>
<!-- 8&#45;&gt;5 -->
<g id="edge34" class="edge"><title>8&#45;&gt;5</title>
<path fill="none" stroke="#0d1e78" stroke-width="0.5" d="M421.439,-241.715C421.755,-219.875 422.183,-190.383 422.51,-167.78"/>
<polygon fill="#0d1e78" stroke="#0d1e78" points="423.736,-167.731 422.562,-164.214 421.286,-167.696 423.736,-167.731"/>
<text text-anchor="middle" x="443.5" y="-207" font-family="Arial" font-size="10.00" fill="#0d1e78">4.06%</text>
<text text-anchor="middle" x="443.5" y="-194" font-family="Arial" font-size="10.00" fill="#0d1e78">1397000×</text>
</g>
<!-- 18 -->
<g id="node33" class="node"><title>18</title>
<polygon fill="#0d1676" stroke="#0d1676" points="657,-164 507,-164 507,-104 657,-104 657,-164"/>
<text text-anchor="middle" x="582" y="-151" font-family="Arial" font-size="10.00" fill="#ffffff">Operator::commute(Operator&amp;)</text>
<text text-anchor="middle" x="582" y="-138" font-family="Arial" font-size="10.00" fill="#ffffff">2.17%</text>
<text text-anchor="middle" x="582" y="-125" font-family="Arial" font-size="10.00" fill="#ffffff">(2.17%)</text>
<text text-anchor="middle" x="582" y="-112" font-family="Arial" font-size="10.00" fill="#ffffff">1071299×</text>
</g>
<!-- 8&#45;&gt;18 -->
<g id="edge32" class="edge"><title>8&#45;&gt;18</title>
<path fill="none" stroke="#0d1375" stroke-width="0.5" d="M459.37,-241.665C462.09,-238.867 464.672,-235.965 467,-233 485.411,-209.55 475.568,-193.726 497,-173 499.349,-170.729 501.854,-168.573 504.475,-166.53"/>
<polygon fill="#0d1375" stroke="#0d1375" points="505.54,-167.262 507.605,-164.182 504.07,-165.303 505.54,-167.262"/>
<text text-anchor="middle" x="516" y="-207" font-family="Arial" font-size="10.00" fill="#0d1375">1.40%</text>
<text text-anchor="middle" x="516" y="-194" font-family="Arial" font-size="10.00" fill="#0d1375">690716×</text>
</g>
<!-- 14&#45;&gt;5 -->
<g id="edge40" class="edge"><title>14&#45;&gt;5</title>
<path fill="none" stroke="#0d1575" stroke-width="0.5" d="M555.482,-241.91C552.725,-239.121 550.191,-236.15 548,-233 532.302,-210.436 551.98,-192.883 533,-173 523.388,-162.931 516.191,-168.446 503,-164 496.714,-161.881 490.183,-159.587 483.685,-157.244"/>
<polygon fill="#0d1575" stroke="#0d1575" points="483.788,-155.978 480.08,-155.938 482.953,-158.282 483.788,-155.978"/>
<text text-anchor="middle" x="567" y="-207" font-family="Arial" font-size="10.00" fill="#0d1575">2.04%</text>
<text text-anchor="middle" x="567" y="-194" font-family="Arial" font-size="10.00" fill="#0d1575">703510×</text>
</g>
<!-- 14&#45;&gt;18 -->
<g id="edge38" class="edge"><title>14&#45;&gt;18</title>
<path fill="none" stroke="#0d1074" stroke-width="0.5" d="M599.953,-241.715C596.312,-219.875 591.397,-190.383 587.63,-167.78"/>
<polygon fill="#0d1074" stroke="#0d1074" points="588.819,-167.465 587.036,-164.214 586.403,-167.868 588.819,-167.465"/>
<text text-anchor="middle" x="617" y="-207" font-family="Arial" font-size="10.00" fill="#0d1074">0.73%</text>
<text text-anchor="middle" x="617" y="-194" font-family="Arial" font-size="10.00" fill="#0d1074">362034×</text>
</g>
<!-- 15&#45;&gt;6 -->
<g id="edge42" class="edge"><title>15&#45;&gt;6</title>
<path fill="none" stroke="#0d0d73" stroke-width="0.5" d="M703.667,-172.551C696.167,-150.582 683.03,-121.774 662,-104 640.163,-85.5438 613.755,-71.6863 586.569,-61.2829"/>
<polygon fill="#0d0d73" stroke="#0d0d73" points="586.958,-60.1201 583.25,-60.0312 586.093,-62.4125 586.958,-60.1201"/>
<text text-anchor="middle" x="718.5" y="-138" font-family="Arial" font-size="10.00" fill="#0d0d73">0.13%</text>
<text text-anchor="middle" x="718.5" y="-125" font-family="Arial" font-size="10.00" fill="#0d0d73">115011×</text>
</g>
<!-- 9 -->
<g id="node35" class="node"><title>9</title>
<polygon fill="#0d2a7b" stroke="#0d2a7b" points="494,-601.5 334,-601.5 334,-554.5 494,-554.5 494,-601.5"/>
<text text-anchor="middle" x="414" y="-588.5" font-family="Arial" font-size="10.00" fill="#ffffff">PerfectMatching::InitGreedy(bool)</text>
<text text-anchor="middle" x="414" y="-575.5" font-family="Arial" font-size="10.00" fill="#ffffff">6.52%</text>
<text text-anchor="middle" x="414" y="-562.5" font-family="Arial" font-size="10.00" fill="#ffffff">(6.52%)</text>
</g>
<!-- 10 -->
<g id="node36" class="node"><title>10</title>
<polygon fill="#0d267a" stroke="#0d267a" points="685,-601.5 503,-601.5 503,-554.5 685,-554.5 685,-601.5"/>
<text text-anchor="middle" x="594" y="-588.5" font-family="Arial" font-size="10.00" fill="#ffffff">PerfectMatching::AddEdge(int, int, int)</text>
<text text-anchor="middle" x="594" y="-575.5" font-family="Arial" font-size="10.00" fill="#ffffff">5.80%</text>
<text text-anchor="middle" x="594" y="-562.5" font-family="Arial" font-size="10.00" fill="#ffffff">(5.80%)</text>
</g>
<!-- 20 -->
<g id="node41" class="node"><title>20</title>
<polygon fill="#0d1074" stroke="#0d1074" points="928,-601.5 694,-601.5 694,-554.5 928,-554.5 928,-601.5"/>
<text text-anchor="middle" x="811" y="-588.5" font-family="Arial" font-size="10.00" fill="#ffffff">std::vector&lt;pauli, std::allocator&lt;pauli&gt; &gt;::~vector()</text>
<text text-anchor="middle" x="811" y="-575.5" font-family="Arial" font-size="10.00" fill="#ffffff">0.72%</text>
<text text-anchor="middle" x="811" y="-562.5" font-family="Arial" font-size="10.00" fill="#ffffff">(0.72%)</text>
</g>
</g>
</svg>
