<?xml version="1.0" encoding="UTF-8" standalone="no"?>
<!DOCTYPE svg PUBLIC "-//W3C//DTD SVG 1.1//EN"
 "http://www.w3.org/Graphics/SVG/1.1/DTD/svg11.dtd">
<!-- Generated by graphviz version 2.26.3 (20100126.1600)
 -->
<!-- Title: _anonymous_0 Pages: 1 -->
<svg width="1259pt" height="610pt"
 viewBox="0.00 0.00 1259.00 610.00" xmlns="http://www.w3.org/2000/svg" xmlns:xlink="http://www.w3.org/1999/xlink">
<g id="graph1" class="graph" transform="scale(1 1) rotate(0) translate(4 606)">
<title>_anonymous_0</title>
<polygon fill="white" stroke="white" points="-4,5 -4,-606 1256,-606 1256,5 -4,5"/>
<!-- 1 -->
<g id="node1" class="node"><title>1</title>
<polygon fill="#ed7303" stroke="#ed7303" points="783,-510 425,-510 425,-450 783,-450 783,-510"/>
<text text-anchor="middle" x="604" y="-497" font-family="Arial" font-size="10.00" fill="#ffffff">std::vector&lt;bool, std::allocator&lt;bool&gt; &gt;::_M_insert_aux(std::_Bit_iterator, bool)</text>
<text text-anchor="middle" x="604" y="-484" font-family="Arial" font-size="10.00" fill="#ffffff">88.04%</text>
<text text-anchor="middle" x="604" y="-471" font-family="Arial" font-size="10.00" fill="#ffffff">(0.00%)</text>
<text text-anchor="middle" x="604" y="-458" font-family="Arial" font-size="10.00" fill="#ffffff">7×</text>
</g>
<!-- 10 -->
<g id="node3" class="node"><title>10</title>
<polygon fill="#0d2a7b" stroke="#0d2a7b" points="387,-406 251,-406 251,-346 387,-346 387,-406"/>
<text text-anchor="middle" x="319" y="-393" font-family="Arial" font-size="10.00" fill="#ffffff">Lattice::success(Operator*)</text>
<text text-anchor="middle" x="319" y="-380" font-family="Arial" font-size="10.00" fill="#ffffff">6.56%</text>
<text text-anchor="middle" x="319" y="-367" font-family="Arial" font-size="10.00" fill="#ffffff">(3.22%)</text>
<text text-anchor="middle" x="319" y="-354" font-family="Arial" font-size="10.00" fill="#ffffff">713×</text>
</g>
<!-- 1&#45;&gt;10 -->
<g id="edge2" class="edge"><title>1&#45;&gt;10</title>
<path fill="none" stroke="#0d2a7b" stroke-width="0.5" d="M521.566,-449.919C480.152,-434.806 430.452,-416.67 390.646,-402.145"/>
<polygon fill="#0d2a7b" stroke="#0d2a7b" points="391.021,-400.977 387.313,-400.928 390.181,-403.279 391.021,-400.977"/>
<text text-anchor="middle" x="510" y="-432" font-family="Arial" font-size="10.00" fill="#0d2a7b">6.56%</text>
<text text-anchor="middle" x="510" y="-419" font-family="Arial" font-size="10.00" fill="#0d2a7b">713×</text>
</g>
<!-- 3 -->
<g id="node5" class="node"><title>3</title>
<polygon fill="#0ab50e" stroke="#0ab50e" points="641,-302 509,-302 509,-242 641,-242 641,-302"/>
<text text-anchor="middle" x="575" y="-289" font-family="Arial" font-size="10.00" fill="#ffffff">Lattice::Lattice(int, double)</text>
<text text-anchor="middle" x="575" y="-276" font-family="Arial" font-size="10.00" fill="#ffffff">49.42%</text>
<text text-anchor="middle" x="575" y="-263" font-family="Arial" font-size="10.00" fill="#ffffff">(7.65%)</text>
<text text-anchor="middle" x="575" y="-250" font-family="Arial" font-size="10.00" fill="#ffffff">689×</text>
</g>
<!-- 1&#45;&gt;3 -->
<g id="edge4" class="edge"><title>1&#45;&gt;3</title>
<path fill="none" stroke="#0ab50e" stroke-width="1.98" d="M591.587,-449.931C586.716,-436.695 581.663,-420.815 579,-406 573.18,-373.617 572.568,-336.136 573.187,-309.063"/>
<polygon fill="#0ab50e" stroke="#0ab50e" points="575.636,-309.13 573.38,-302.066 570.738,-308.996 575.636,-309.13"/>
<text text-anchor="middle" x="596" y="-380" font-family="Arial" font-size="10.00" fill="#0ab50e">49.42%</text>
<text text-anchor="middle" x="596" y="-367" font-family="Arial" font-size="10.00" fill="#0ab50e">689×</text>
</g>
<!-- 5 -->
<g id="node7" class="node"><title>5</title>
<polygon fill="#0c9c79" stroke="#0c9c79" points="730,-406 618,-406 618,-346 730,-346 730,-406"/>
<text text-anchor="middle" x="674" y="-393" font-family="Arial" font-size="10.00" fill="#ffffff">Lattice::correctMesh()</text>
<text text-anchor="middle" x="674" y="-380" font-family="Arial" font-size="10.00" fill="#ffffff">31.08%</text>
<text text-anchor="middle" x="674" y="-367" font-family="Arial" font-size="10.00" fill="#ffffff">(3.16%)</text>
<text text-anchor="middle" x="674" y="-354" font-family="Arial" font-size="10.00" fill="#ffffff">680×</text>
</g>
<!-- 1&#45;&gt;5 -->
<g id="edge6" class="edge"><title>1&#45;&gt;5</title>
<path fill="none" stroke="#0c9c79" stroke-width="1.24" d="M624.247,-449.919C632.446,-437.738 641.966,-423.593 650.471,-410.957"/>
<polygon fill="#0c9c79" stroke="#0c9c79" points="652.298,-411.754 653.799,-406.014 649.046,-409.565 652.298,-411.754"/>
<text text-anchor="middle" x="665" y="-432" font-family="Arial" font-size="10.00" fill="#0c9c79">31.08%</text>
<text text-anchor="middle" x="665" y="-419" font-family="Arial" font-size="10.00" fill="#0c9c79">680×</text>
</g>
<!-- 15 -->
<g id="node9" class="node"><title>15</title>
<polygon fill="#0d1174" stroke="#0d1174" points="831,-406 739,-406 739,-346 831,-346 831,-406"/>
<text text-anchor="middle" x="785" y="-393" font-family="Arial" font-size="10.00" fill="#ffffff">Lattice::~Lattice()</text>
<text text-anchor="middle" x="785" y="-380" font-family="Arial" font-size="10.00" fill="#ffffff">0.98%</text>
<text text-anchor="middle" x="785" y="-367" font-family="Arial" font-size="10.00" fill="#ffffff">(0.98%)</text>
<text text-anchor="middle" x="785" y="-354" font-family="Arial" font-size="10.00" fill="#ffffff">675×</text>
</g>
<!-- 1&#45;&gt;15 -->
<g id="edge8" class="edge"><title>1&#45;&gt;15</title>
<path fill="none" stroke="#0d1174" stroke-width="0.5" d="M667.676,-449.812C673.241,-446.917 678.749,-443.956 684,-441 701.717,-431.027 720.589,-419.222 737.166,-408.427"/>
<polygon fill="#0d1174" stroke="#0d1174" points="738.189,-409.222 740.45,-406.282 736.85,-407.171 738.189,-409.222"/>
<text text-anchor="middle" x="741" y="-432" font-family="Arial" font-size="10.00" fill="#0d1174">0.98%</text>
<text text-anchor="middle" x="741" y="-419" font-family="Arial" font-size="10.00" fill="#0d1174">675×</text>
</g>
<!-- 16 -->
<g id="node28" class="node"><title>16</title>
<polygon fill="#0d0f74" stroke="#0d0f74" points="146,-302 7.10543e-14,-302 0,-242 146,-242 146,-302"/>
<text text-anchor="middle" x="73" y="-289" font-family="Arial" font-size="10.00" fill="#ffffff">Lattice::getLogical(std::string)</text>
<text text-anchor="middle" x="73" y="-276" font-family="Arial" font-size="10.00" fill="#ffffff">0.65%</text>
<text text-anchor="middle" x="73" y="-263" font-family="Arial" font-size="10.00" fill="#ffffff">(0.63%)</text>
<text text-anchor="middle" x="73" y="-250" font-family="Arial" font-size="10.00" fill="#ffffff">1440×</text>
</g>
<!-- 10&#45;&gt;16 -->
<g id="edge28" class="edge"><title>10&#45;&gt;16</title>
<path fill="none" stroke="#0d0f74" stroke-width="0.5" d="M250.802,-347.168C218.836,-333.654 180.663,-317.516 147.896,-303.663"/>
<polygon fill="#0d0f74" stroke="#0d0f74" points="148.037,-302.393 144.336,-302.158 147.083,-304.65 148.037,-302.393"/>
<text text-anchor="middle" x="240" y="-328" font-family="Arial" font-size="10.00" fill="#0d0f74">0.65%</text>
<text text-anchor="middle" x="240" y="-315" font-family="Arial" font-size="10.00" fill="#0d0f74">1440×</text>
</g>
<!-- 18 -->
<g id="node30" class="node"><title>18</title>
<polygon fill="#0d0f73" stroke="#0d0f73" points="365,-302 155,-302 155,-242 365,-242 365,-302"/>
<text text-anchor="middle" x="260" y="-289" font-family="Arial" font-size="10.00" fill="#ffffff">operator*(Operator const&amp;, Operator const&amp;)</text>
<text text-anchor="middle" x="260" y="-276" font-family="Arial" font-size="10.00" fill="#ffffff">0.51%</text>
<text text-anchor="middle" x="260" y="-263" font-family="Arial" font-size="10.00" fill="#ffffff">(0.46%)</text>
<text text-anchor="middle" x="260" y="-250" font-family="Arial" font-size="10.00" fill="#ffffff">1014×</text>
</g>
<!-- 10&#45;&gt;18 -->
<g id="edge30" class="edge"><title>10&#45;&gt;18</title>
<path fill="none" stroke="#0d0f73" stroke-width="0.5" d="M301.935,-345.919C294.719,-333.199 286.288,-318.337 278.885,-305.289"/>
<polygon fill="#0d0f73" stroke="#0d0f73" points="279.819,-304.453 277.027,-302.014 277.688,-305.662 279.819,-304.453"/>
<text text-anchor="middle" x="311" y="-328" font-family="Arial" font-size="10.00" fill="#0d0f73">0.51%</text>
<text text-anchor="middle" x="311" y="-315" font-family="Arial" font-size="10.00" fill="#0d0f73">1014×</text>
</g>
<!-- 14 -->
<g id="node32" class="node"><title>14</title>
<polygon fill="#0d1675" stroke="#0d1675" points="354,-233 218,-233 218,-173 354,-173 354,-233"/>
<text text-anchor="middle" x="286" y="-220" font-family="Arial" font-size="10.00" fill="#ffffff">Operator::pushBack(pauli&amp;)</text>
<text text-anchor="middle" x="286" y="-207" font-family="Arial" font-size="10.00" fill="#ffffff">2.14%</text>
<text text-anchor="middle" x="286" y="-194" font-family="Arial" font-size="10.00" fill="#ffffff">(2.01%)</text>
<text text-anchor="middle" x="286" y="-181" font-family="Arial" font-size="10.00" fill="#ffffff">2084411×</text>
</g>
<!-- 10&#45;&gt;14 -->
<g id="edge32" class="edge"><title>10&#45;&gt;14</title>
<path fill="none" stroke="#0d1675" stroke-width="0.5" d="M345.229,-345.874C366.507,-317.579 389.831,-274.805 369,-242 365.819,-236.991 361.806,-232.615 357.27,-228.792"/>
<polygon fill="#0d1675" stroke="#0d1675" points="357.879,-227.711 354.38,-226.482 356.35,-229.624 357.879,-227.711"/>
<text text-anchor="middle" x="388.5" y="-328" font-family="Arial" font-size="10.00" fill="#0d1675">2.14%</text>
<text text-anchor="middle" x="388.5" y="-315" font-family="Arial" font-size="10.00" fill="#0d1675">2084411×</text>
</g>
<!-- 8 -->
<g id="node13" class="node"><title>8</title>
<polygon fill="#0d367e" stroke="#0d367e" points="479,-164 305,-164 305,-104 479,-104 479,-164"/>
<text text-anchor="middle" x="392" y="-151" font-family="Arial" font-size="10.00" fill="#ffffff">Operator::Operator(Operator const&amp;)</text>
<text text-anchor="middle" x="392" y="-138" font-family="Arial" font-size="10.00" fill="#ffffff">9.06%</text>
<text text-anchor="middle" x="392" y="-125" font-family="Arial" font-size="10.00" fill="#ffffff">(3.51%)</text>
<text text-anchor="middle" x="392" y="-112" font-family="Arial" font-size="10.00" fill="#ffffff">959053×</text>
</g>
<!-- 3&#45;&gt;8 -->
<g id="edge12" class="edge"><title>3&#45;&gt;8</title>
<path fill="none" stroke="#0d367e" stroke-width="0.5" d="M534.84,-241.715C505.282,-219.425 465.155,-189.166 434.957,-166.394"/>
<polygon fill="#0d367e" stroke="#0d367e" points="435.599,-165.343 432.066,-164.214 434.123,-167.299 435.599,-165.343"/>
<text text-anchor="middle" x="540" y="-207" font-family="Arial" font-size="10.00" fill="#0d367e">9.06%</text>
<text text-anchor="middle" x="540" y="-194" font-family="Arial" font-size="10.00" fill="#0d367e">959053×</text>
</g>
<!-- 11 -->
<g id="node15" class="node"><title>11</title>
<polygon fill="#0d277b" stroke="#0d277b" points="662,-164 488,-164 488,-104 662,-104 662,-164"/>
<text text-anchor="middle" x="575" y="-151" font-family="Arial" font-size="10.00" fill="#ffffff">Operator::generateRandom(double&amp;)</text>
<text text-anchor="middle" x="575" y="-138" font-family="Arial" font-size="10.00" fill="#ffffff">6.10%</text>
<text text-anchor="middle" x="575" y="-125" font-family="Arial" font-size="10.00" fill="#ffffff">(6.10%)</text>
<text text-anchor="middle" x="575" y="-112" font-family="Arial" font-size="10.00" fill="#ffffff">1079230×</text>
</g>
<!-- 3&#45;&gt;11 -->
<g id="edge14" class="edge"><title>3&#45;&gt;11</title>
<path fill="none" stroke="#0d277b" stroke-width="0.5" d="M575,-241.715C575,-219.875 575,-190.383 575,-167.78"/>
<polygon fill="#0d277b" stroke="#0d277b" points="576.225,-167.714 575,-164.214 573.775,-167.714 576.225,-167.714"/>
<text text-anchor="middle" x="596.5" y="-207" font-family="Arial" font-size="10.00" fill="#0d277b">6.10%</text>
<text text-anchor="middle" x="596.5" y="-194" font-family="Arial" font-size="10.00" fill="#0d277b">1079230×</text>
</g>
<!-- 4 -->
<g id="node17" class="node"><title>4</title>
<polygon fill="#0ba652" stroke="#0ba652" points="785,-164 671,-164 671,-104 785,-104 785,-164"/>
<text text-anchor="middle" x="728" y="-151" font-family="Arial" font-size="10.00" fill="#ffffff">Operator::Operator(int)</text>
<text text-anchor="middle" x="728" y="-138" font-family="Arial" font-size="10.00" fill="#ffffff">38.49%</text>
<text text-anchor="middle" x="728" y="-125" font-family="Arial" font-size="10.00" fill="#ffffff">(13.40%)</text>
<text text-anchor="middle" x="728" y="-112" font-family="Arial" font-size="10.00" fill="#ffffff">2794547×</text>
</g>
<!-- 3&#45;&gt;4 -->
<g id="edge16" class="edge"><title>3&#45;&gt;4</title>
<path fill="none" stroke="#0c968d" stroke-width="1.06" d="M610.027,-241.926C613.416,-238.932 616.786,-235.92 620,-233 648.618,-206.998 654.382,-199.002 683,-173 684.908,-171.266 686.871,-169.5 688.861,-167.725"/>
<polygon fill="#0c968d" stroke="#0c968d" points="690.293,-168.887 692.973,-164.074 687.876,-166.165 690.293,-168.887"/>
<text text-anchor="middle" x="704.5" y="-207" font-family="Arial" font-size="10.00" fill="#0c968d">26.61%</text>
<text text-anchor="middle" x="704.5" y="-194" font-family="Arial" font-size="10.00" fill="#0c968d">1932161×</text>
</g>
<!-- 7 -->
<g id="node21" class="node"><title>7</title>
<polygon fill="#0c9789" stroke="#0c9789" points="802,-302 654,-302 654,-242 802,-242 802,-302"/>
<text text-anchor="middle" x="728" y="-289" font-family="Arial" font-size="10.00" fill="#ffffff">Lattice::syndromeZZZZ(int, int)</text>
<text text-anchor="middle" x="728" y="-276" font-family="Arial" font-size="10.00" fill="#ffffff">27.58%</text>
<text text-anchor="middle" x="728" y="-263" font-family="Arial" font-size="10.00" fill="#ffffff">(13.23%)</text>
<text text-anchor="middle" x="728" y="-250" font-family="Arial" font-size="10.00" fill="#ffffff">358876×</text>
</g>
<!-- 5&#45;&gt;7 -->
<g id="edge20" class="edge"><title>5&#45;&gt;7</title>
<path fill="none" stroke="#0c9789" stroke-width="1.1" d="M689.619,-345.919C695.944,-333.738 703.288,-319.593 709.849,-306.957"/>
<polygon fill="#0c9789" stroke="#0c9789" points="711.62,-307.572 712.416,-302.014 708.327,-305.862 711.62,-307.572"/>
<text text-anchor="middle" x="727" y="-328" font-family="Arial" font-size="10.00" fill="#0c9789">27.58%</text>
<text text-anchor="middle" x="727" y="-315" font-family="Arial" font-size="10.00" fill="#0c9789">358876×</text>
</g>
<!-- 2 -->
<g id="node10" class="node"><title>2</title>
<polygon fill="#ed7303" stroke="#ed7303" points="648,-601.5 560,-601.5 560,-554.5 648,-554.5 648,-601.5"/>
<text text-anchor="middle" x="604" y="-588.5" font-family="Arial" font-size="10.00" fill="#ffffff">Simulation::run()</text>
<text text-anchor="middle" x="604" y="-575.5" font-family="Arial" font-size="10.00" fill="#ffffff">88.04%</text>
<text text-anchor="middle" x="604" y="-562.5" font-family="Arial" font-size="10.00" fill="#ffffff">(0.00%)</text>
</g>
<!-- 2&#45;&gt;1 -->
<g id="edge10" class="edge"><title>2&#45;&gt;1</title>
<path fill="none" stroke="#ed7303" stroke-width="3.52" d="M604,-554.277C604,-543.921 604,-531.491 604,-519.788"/>
<polygon fill="#ed7303" stroke="#ed7303" points="607.29,-519.59 604,-510.19 600.71,-519.59 607.29,-519.59"/>
<text text-anchor="middle" x="621" y="-536" font-family="Arial" font-size="10.00" fill="#ed7303">88.04%</text>
<text text-anchor="middle" x="621" y="-523" font-family="Arial" font-size="10.00" fill="#ed7303">7×</text>
</g>
<!-- 6 -->
<g id="node19" class="node"><title>6</title>
<polygon fill="#0c9b7a" stroke="#0c9b7a" points="729,-60 55,-60 55,-3.19744e-14 729,-1.06581e-14 729,-60"/>
<text text-anchor="middle" x="392" y="-47" font-family="Arial" font-size="10.00" fill="#ffffff">std::vector&lt;pauli, std::allocator&lt;pauli&gt; &gt;::_M_insert_aux(__gnu_cxx::__normal_iterator&lt;pauli*, std::vector&lt;pauli, std::allocator&lt;pauli&gt; &gt; &gt;, pauli const&amp;)</text>
<text text-anchor="middle" x="392" y="-34" font-family="Arial" font-size="10.00" fill="#ffffff">30.82%</text>
<text text-anchor="middle" x="392" y="-21" font-family="Arial" font-size="10.00" fill="#ffffff">(30.82%)</text>
<text text-anchor="middle" x="392" y="-8" font-family="Arial" font-size="10.00" fill="#ffffff">5319041×</text>
</g>
<!-- 8&#45;&gt;6 -->
<g id="edge26" class="edge"><title>8&#45;&gt;6</title>
<path fill="none" stroke="#0d257a" stroke-width="0.5" d="M392,-103.919C392,-91.3068 392,-76.5891 392,-63.6214"/>
<polygon fill="#0d257a" stroke="#0d257a" points="393.225,-63.5135 392,-60.0135 390.775,-63.5135 393.225,-63.5135"/>
<text text-anchor="middle" x="411" y="-86" font-family="Arial" font-size="10.00" fill="#0d257a">5.55%</text>
<text text-anchor="middle" x="411" y="-73" font-family="Arial" font-size="10.00" fill="#0d257a">958588×</text>
</g>
<!-- 4&#45;&gt;6 -->
<g id="edge18" class="edge"><title>4&#45;&gt;6</title>
<path fill="none" stroke="#0c9493" d="M670.741,-105.829C669.151,-105.196 667.568,-104.585 666,-104 621.794,-87.5008 572.32,-72.9907 527.705,-61.2902"/>
<polygon fill="#0c9493" stroke="#0c9493" points="528.128,-59.592 522.848,-60.0225 527.244,-62.9786 528.128,-59.592"/>
<text text-anchor="middle" x="659.5" y="-86" font-family="Arial" font-size="10.00" fill="#0c9493">25.09%</text>
<text text-anchor="middle" x="659.5" y="-73" font-family="Arial" font-size="10.00" fill="#0c9493">4329417×</text>
</g>
<!-- 7&#45;&gt;4 -->
<g id="edge22" class="edge"><title>7&#45;&gt;4</title>
<path fill="none" stroke="#0d4482" stroke-width="0.5" d="M728,-241.715C728,-219.875 728,-190.383 728,-167.78"/>
<polygon fill="#0d4482" stroke="#0d4482" points="729.225,-167.714 728,-164.214 726.775,-167.714 729.225,-167.714"/>
<text text-anchor="middle" x="747" y="-207" font-family="Arial" font-size="10.00" fill="#0d4482">11.83%</text>
<text text-anchor="middle" x="747" y="-194" font-family="Arial" font-size="10.00" fill="#0d4482">859008×</text>
</g>
<!-- 13 -->
<g id="node24" class="node"><title>13</title>
<polygon fill="#0d1776" stroke="#0d1776" points="944,-164 794,-164 794,-104 944,-104 944,-164"/>
<text text-anchor="middle" x="869" y="-151" font-family="Arial" font-size="10.00" fill="#ffffff">Operator::commute(Operator&amp;)</text>
<text text-anchor="middle" x="869" y="-138" font-family="Arial" font-size="10.00" fill="#ffffff">2.53%</text>
<text text-anchor="middle" x="869" y="-125" font-family="Arial" font-size="10.00" fill="#ffffff">(2.53%)</text>
<text text-anchor="middle" x="869" y="-112" font-family="Arial" font-size="10.00" fill="#ffffff">381709×</text>
</g>
<!-- 7&#45;&gt;13 -->
<g id="edge24" class="edge"><title>7&#45;&gt;13</title>
<path fill="none" stroke="#0d1776" stroke-width="0.5" d="M759.017,-241.774C762.053,-238.811 765.087,-235.848 768,-233 790.424,-211.078 815.613,-186.389 835.226,-167.149"/>
<polygon fill="#0d1776" stroke="#0d1776" points="836.437,-167.677 838.078,-164.351 834.722,-165.928 836.437,-167.677"/>
<text text-anchor="middle" x="847" y="-207" font-family="Arial" font-size="10.00" fill="#0d1776">2.52%</text>
<text text-anchor="middle" x="847" y="-194" font-family="Arial" font-size="10.00" fill="#0d1776">380279×</text>
</g>
<!-- 9 -->
<g id="node26" class="node"><title>9</title>
<polygon fill="#0d2d7c" stroke="#0d2d7c" points="839,-601.5 657,-601.5 657,-554.5 839,-554.5 839,-601.5"/>
<text text-anchor="middle" x="748" y="-588.5" font-family="Arial" font-size="10.00" fill="#ffffff">PerfectMatching::AddEdge(int, int, int)</text>
<text text-anchor="middle" x="748" y="-575.5" font-family="Arial" font-size="10.00" fill="#ffffff">7.19%</text>
<text text-anchor="middle" x="748" y="-562.5" font-family="Arial" font-size="10.00" fill="#ffffff">(7.19%)</text>
</g>
<!-- 14&#45;&gt;6 -->
<g id="edge34" class="edge"><title>14&#45;&gt;6</title>
<path fill="none" stroke="#0d0d73" stroke-width="0.5" d="M269.987,-172.662C261.494,-152.111 255.039,-124.982 267,-104 277.036,-86.3959 293.087,-72.5525 310.387,-61.8433"/>
<polygon fill="#0d0d73" stroke="#0d0d73" points="311.043,-62.878 313.401,-60.016 309.773,-60.7829 311.043,-62.878"/>
<text text-anchor="middle" x="283.5" y="-138" font-family="Arial" font-size="10.00" fill="#0d0d73">0.13%</text>
<text text-anchor="middle" x="283.5" y="-125" font-family="Arial" font-size="10.00" fill="#0d0d73">22020×</text>
</g>
<!-- 12 -->
<g id="node33" class="node"><title>12</title>
<polygon fill="#0d1b77" stroke="#0d1b77" points="1008,-601.5 848,-601.5 848,-554.5 1008,-554.5 1008,-601.5"/>
<text text-anchor="middle" x="928" y="-588.5" font-family="Arial" font-size="10.00" fill="#ffffff">PerfectMatching::InitGreedy(bool)</text>
<text text-anchor="middle" x="928" y="-575.5" font-family="Arial" font-size="10.00" fill="#ffffff">3.45%</text>
<text text-anchor="middle" x="928" y="-562.5" font-family="Arial" font-size="10.00" fill="#ffffff">(3.45%)</text>
</g>
<!-- 17 -->
<g id="node35" class="node"><title>17</title>
<polygon fill="#0d0f74" stroke="#0d0f74" points="1251,-601.5 1017,-601.5 1017,-554.5 1251,-554.5 1251,-601.5"/>
<text text-anchor="middle" x="1134" y="-588.5" font-family="Arial" font-size="10.00" fill="#ffffff">std::vector&lt;pauli, std::allocator&lt;pauli&gt; &gt;::~vector()</text>
<text text-anchor="middle" x="1134" y="-575.5" font-family="Arial" font-size="10.00" fill="#ffffff">0.63%</text>
<text text-anchor="middle" x="1134" y="-562.5" font-family="Arial" font-size="10.00" fill="#ffffff">(0.63%)</text>
</g>
</g>
</svg>
