<?xml version="1.0" encoding="UTF-8" standalone="no"?>
<!DOCTYPE svg PUBLIC "-//W3C//DTD SVG 1.1//EN"
 "http://www.w3.org/Graphics/SVG/1.1/DTD/svg11.dtd">
<!-- Generated by graphviz version 2.26.3 (20100126.1600)
 -->
<!-- Title: _anonymous_0 Pages: 1 -->
<svg width="4296pt" height="172pt"
 viewBox="0.00 0.00 4296.00 172.00" xmlns="http://www.w3.org/2000/svg" xmlns:xlink="http://www.w3.org/1999/xlink">
<g id="graph1" class="graph" transform="scale(1 1) rotate(0) translate(4 168)">
<title>_anonymous_0</title>
<polygon fill="white" stroke="white" points="-4,5 -4,-168 4293,-168 4293,5 -4,5"/>
<!-- 1 -->
<g id="node1" class="node"><title>1</title>
<polygon fill="#0c6a8b" stroke="#0c6a8b" points="392,-157.5 1.7053e-13,-157.5 0,-110.5 392,-110.5 392,-157.5"/>
<text text-anchor="middle" x="196" y="-144.5" font-family="Arial" font-size="10.00" fill="#ffffff">PerfectMatching::AugmentBranchInit(PerfectMatching::Node*, PerfectMatching::Node*)</text>
<text text-anchor="middle" x="196" y="-131.5" font-family="Arial" font-size="10.00" fill="#ffffff">18.58%</text>
<text text-anchor="middle" x="196" y="-118.5" font-family="Arial" font-size="10.00" fill="#ffffff">(18.58%)</text>
</g>
<!-- 2 -->
<g id="node2" class="node"><title>2</title>
<polygon fill="#0d4d84" stroke="#0d4d84" points="673,-157.5 401,-157.5 401,-110.5 673,-110.5 673,-157.5"/>
<text text-anchor="middle" x="537" y="-144.5" font-family="Arial" font-size="10.00" fill="#ffffff">PerfectMatching::AugmentBranch(PerfectMatching::Node*)</text>
<text text-anchor="middle" x="537" y="-131.5" font-family="Arial" font-size="10.00" fill="#ffffff">13.55%</text>
<text text-anchor="middle" x="537" y="-118.5" font-family="Arial" font-size="10.00" fill="#ffffff">(13.55%)</text>
</g>
<!-- 3 -->
<g id="node3" class="node"><title>3</title>
<polygon fill="#0d3f81" stroke="#0d3f81" points="948,-157.5 682,-157.5 682,-110.5 948,-110.5 948,-157.5"/>
<text text-anchor="middle" x="815" y="-144.5" font-family="Arial" font-size="10.00" fill="#ffffff">PerfectMatching::GrowTree(PerfectMatching::Node*, bool)</text>
<text text-anchor="middle" x="815" y="-131.5" font-family="Arial" font-size="10.00" fill="#ffffff">10.94%</text>
<text text-anchor="middle" x="815" y="-118.5" font-family="Arial" font-size="10.00" fill="#ffffff">(10.94%)</text>
</g>
<!-- 4 -->
<g id="node4" class="node"><title>4</title>
<polygon fill="#0d367e" stroke="#0d367e" points="1129,-157.5 957,-157.5 957,-110.5 1129,-110.5 1129,-157.5"/>
<text text-anchor="middle" x="1043" y="-144.5" font-family="Arial" font-size="10.00" fill="#ffffff">PerfectMatching::ReallocateEdges()</text>
<text text-anchor="middle" x="1043" y="-131.5" font-family="Arial" font-size="10.00" fill="#ffffff">9.00%</text>
<text text-anchor="middle" x="1043" y="-118.5" font-family="Arial" font-size="10.00" fill="#ffffff">(9.00%)</text>
</g>
<!-- 5 -->
<g id="node5" class="node"><title>5</title>
<polygon fill="#0d317d" stroke="#0d317d" points="1278,-157.5 1138,-157.5 1138,-110.5 1278,-110.5 1278,-157.5"/>
<text text-anchor="middle" x="1208" y="-144.5" font-family="Arial" font-size="10.00" fill="#ffffff">PerfectMatching::InitGlobal()</text>
<text text-anchor="middle" x="1208" y="-131.5" font-family="Arial" font-size="10.00" fill="#ffffff">7.98%</text>
<text text-anchor="middle" x="1208" y="-118.5" font-family="Arial" font-size="10.00" fill="#ffffff">(7.98%)</text>
</g>
<!-- 6 -->
<g id="node6" class="node"><title>6</title>
<polygon fill="#0d2b7b" stroke="#0d2b7b" points="1637,-157.5 1287,-157.5 1287,-110.5 1637,-110.5 1637,-157.5"/>
<text text-anchor="middle" x="1462" y="-144.5" font-family="Arial" font-size="10.00" fill="#ffffff">PerfectMatching::ShrinkInit(PerfectMatching::Edge*, PerfectMatching::Node*)</text>
<text text-anchor="middle" x="1462" y="-131.5" font-family="Arial" font-size="10.00" fill="#ffffff">6.76%</text>
<text text-anchor="middle" x="1462" y="-118.5" font-family="Arial" font-size="10.00" fill="#ffffff">(6.76%)</text>
</g>
<!-- 8 -->
<g id="node7" class="node"><title>8</title>
<polygon fill="#0d267a" stroke="#0d267a" points="2008,-157.5 1646,-157.5 1646,-110.5 2008,-110.5 2008,-157.5"/>
<text text-anchor="middle" x="1827" y="-144.5" font-family="Arial" font-size="10.00" fill="#ffffff">PerfectMatching::AddTreeEdge(PerfectMatching::Tree*, PerfectMatching::Tree*)</text>
<text text-anchor="middle" x="1827" y="-131.5" font-family="Arial" font-size="10.00" fill="#ffffff">5.86%</text>
<text text-anchor="middle" x="1827" y="-118.5" font-family="Arial" font-size="10.00" fill="#ffffff">(5.86%)</text>
</g>
<!-- 9 -->
<g id="node8" class="node"><title>9</title>
<polygon fill="#0d257a" stroke="#0d257a" points="2265,-157.5 2017,-157.5 2017,-110.5 2265,-110.5 2265,-157.5"/>
<text text-anchor="middle" x="2141" y="-144.5" font-family="Arial" font-size="10.00" fill="#ffffff">PerfectMatching::ExpandInit(PerfectMatching::Node*)</text>
<text text-anchor="middle" x="2141" y="-131.5" font-family="Arial" font-size="10.00" fill="#ffffff">5.66%</text>
<text text-anchor="middle" x="2141" y="-118.5" font-family="Arial" font-size="10.00" fill="#ffffff">(5.66%)</text>
</g>
<!-- 10 -->
<g id="node9" class="node"><title>10</title>
<polygon fill="#0d257a" stroke="#0d257a" points="2546,-164 2274,-164 2274,-104 2546,-104 2546,-164"/>
<text text-anchor="middle" x="2410" y="-151" font-family="Arial" font-size="10.00" fill="#ffffff">Lattice::evolute_and_correct(double, double, double, float**)</text>
<text text-anchor="middle" x="2410" y="-138" font-family="Arial" font-size="10.00" fill="#ffffff">5.47%</text>
<text text-anchor="middle" x="2410" y="-125" font-family="Arial" font-size="10.00" fill="#ffffff">(5.11%)</text>
<text text-anchor="middle" x="2410" y="-112" font-family="Arial" font-size="10.00" fill="#ffffff">10730×</text>
</g>
<!-- 20 -->
<g id="node11" class="node"><title>20</title>
<polygon fill="#0d267a" stroke="#0d267a" points="2698,-60 2564,-60 2564,-3.19744e-14 2698,-1.06581e-14 2698,-60"/>
<text text-anchor="middle" x="2631" y="-47" font-family="Arial" font-size="10.00" fill="#ffffff">Lattice::perfect_correction()</text>
<text text-anchor="middle" x="2631" y="-34" font-family="Arial" font-size="10.00" fill="#ffffff">5.87%</text>
<text text-anchor="middle" x="2631" y="-21" font-family="Arial" font-size="10.00" fill="#ffffff">(0.02%)</text>
<text text-anchor="middle" x="2631" y="-8" font-family="Arial" font-size="10.00" fill="#ffffff">154229×</text>
</g>
<!-- 10&#45;&gt;20 -->
<g id="edge2" class="edge"><title>10&#45;&gt;20</title>
<path fill="none" stroke="#0d257a" stroke-width="0.5" d="M2466.91,-103.981C2488.94,-92.6562 2514.48,-79.8873 2538,-69 2545.3,-65.6218 2552.97,-62.2002 2560.65,-58.8595"/>
<polygon fill="#0d257a" stroke="#0d257a" points="2561.22,-59.9492 2563.94,-57.4331 2560.24,-57.7013 2561.22,-59.9492"/>
<text text-anchor="middle" x="2557" y="-79.5" font-family="Arial" font-size="10.00" fill="#0d257a">106790×</text>
</g>
<!-- 20&#45;&gt;10 -->
<g id="edge8" class="edge"><title>20&#45;&gt;10</title>
<path fill="none" stroke="#0d257a" stroke-width="0.5" d="M2610.85,-60.3285C2601.11,-72.8003 2588.4,-86.326 2574,-95 2570.68,-97.0015 2561.7,-99.8466 2549.55,-103.1"/>
<polygon fill="#0d257a" stroke="#0d257a" points="2549.11,-101.949 2546.04,-104.028 2549.73,-104.318 2549.11,-101.949"/>
<text text-anchor="middle" x="2618.5" y="-86" font-family="Arial" font-size="10.00" fill="#0d257a">5.47%</text>
<text text-anchor="middle" x="2618.5" y="-73" font-family="Arial" font-size="10.00" fill="#0d257a">10730×</text>
</g>
<!-- 20&#45;&gt;20 -->
<g id="edge10" class="edge"><title>20&#45;&gt;20</title>
<path fill="none" stroke="#0d267a" stroke-width="0.5" d="M2698.2,-37.4625C2703.63,-35.8391 2707,-33.3516 2707,-30 2707,-27.4863 2705.11,-25.4587 2701.87,-23.9171"/>
<polygon fill="#0d267a" stroke="#0d267a" points="2701.91,-22.6234 2698.2,-22.5375 2701.04,-24.9165 2701.91,-22.6234"/>
<text text-anchor="middle" x="2723.5" y="-27.5" font-family="Arial" font-size="10.00" fill="#0d267a">47419×</text>
</g>
<!-- 11 -->
<g id="node12" class="node"><title>11</title>
<polygon fill="#0d1b77" stroke="#0d1b77" points="3043,-157.5 2903,-157.5 2903,-110.5 3043,-110.5 3043,-157.5"/>
<text text-anchor="middle" x="2973" y="-144.5" font-family="Arial" font-size="10.00" fill="#ffffff">PerfectMatching::Solve(bool)</text>
<text text-anchor="middle" x="2973" y="-131.5" font-family="Arial" font-size="10.00" fill="#ffffff">3.43%</text>
<text text-anchor="middle" x="2973" y="-118.5" font-family="Arial" font-size="10.00" fill="#ffffff">(3.43%)</text>
</g>
<!-- 12 -->
<g id="node13" class="node"><title>12</title>
<polygon fill="#0d1b77" stroke="#0d1b77" points="3282,-157.5 3052,-157.5 3052,-110.5 3282,-110.5 3282,-157.5"/>
<text text-anchor="middle" x="3167" y="-144.5" font-family="Arial" font-size="10.00" fill="#ffffff">PerfectMatching::Shrink(PerfectMatching::Edge*)</text>
<text text-anchor="middle" x="3167" y="-131.5" font-family="Arial" font-size="10.00" fill="#ffffff">3.26%</text>
<text text-anchor="middle" x="3167" y="-118.5" font-family="Arial" font-size="10.00" fill="#ffffff">(3.26%)</text>
</g>
<!-- 13 -->
<g id="node14" class="node"><title>13</title>
<polygon fill="#0d1a77" stroke="#0d1a77" points="2797,-157.5 2555,-157.5 2555,-110.5 2797,-110.5 2797,-157.5"/>
<text text-anchor="middle" x="2676" y="-144.5" font-family="Arial" font-size="10.00" fill="#ffffff">Simulation::Distance(int, int, double, double, double)</text>
<text text-anchor="middle" x="2676" y="-131.5" font-family="Arial" font-size="10.00" fill="#ffffff">3.24%</text>
<text text-anchor="middle" x="2676" y="-118.5" font-family="Arial" font-size="10.00" fill="#ffffff">(0.01%)</text>
</g>
<!-- 13&#45;&gt;20 -->
<g id="edge4" class="edge"><title>13&#45;&gt;20</title>
<path fill="none" stroke="#0d1a77" stroke-width="0.5" d="M2665.79,-110.401C2659.81,-96.5831 2652.16,-78.906 2645.56,-63.6474"/>
<polygon fill="#0d1a77" stroke="#0d1a77" points="2646.59,-62.9553 2644.08,-60.2295 2644.35,-63.9282 2646.59,-62.9553"/>
<text text-anchor="middle" x="2672" y="-86" font-family="Arial" font-size="10.00" fill="#0d1a77">3.23%</text>
<text text-anchor="middle" x="2672" y="-73" font-family="Arial" font-size="10.00" fill="#0d1a77">11×</text>
</g>
<!-- 14 -->
<g id="node16" class="node"><title>14</title>
<polygon fill="#0d1876" stroke="#0d1876" points="3583,-157.5 3291,-157.5 3291,-110.5 3583,-110.5 3583,-157.5"/>
<text text-anchor="middle" x="3437" y="-144.5" font-family="Arial" font-size="10.00" fill="#ffffff">PerfectMatching::FindBlossomRootInit(PerfectMatching::Edge*)</text>
<text text-anchor="middle" x="3437" y="-131.5" font-family="Arial" font-size="10.00" fill="#ffffff">2.66%</text>
<text text-anchor="middle" x="3437" y="-118.5" font-family="Arial" font-size="10.00" fill="#ffffff">(2.66%)</text>
</g>
<!-- 15 -->
<g id="node17" class="node"><title>15</title>
<polygon fill="#0d1876" stroke="#0d1876" points="2894,-157.5 2806,-157.5 2806,-110.5 2894,-110.5 2894,-157.5"/>
<text text-anchor="middle" x="2850" y="-144.5" font-family="Arial" font-size="10.00" fill="#ffffff">Simulation::run()</text>
<text text-anchor="middle" x="2850" y="-131.5" font-family="Arial" font-size="10.00" fill="#ffffff">2.65%</text>
<text text-anchor="middle" x="2850" y="-118.5" font-family="Arial" font-size="10.00" fill="#ffffff">(0.00%)</text>
</g>
<!-- 15&#45;&gt;20 -->
<g id="edge6" class="edge"><title>15&#45;&gt;20</title>
<path fill="none" stroke="#0d1876" stroke-width="0.5" d="M2813.64,-110.49C2809.76,-108.216 2805.83,-106.01 2802,-104 2769.81,-87.0964 2732.92,-70.7703 2701.66,-57.7735"/>
<polygon fill="#0d1876" stroke="#0d1876" points="2701.97,-56.5754 2698.27,-56.3662 2701.03,-58.8385 2701.97,-56.5754"/>
<text text-anchor="middle" x="2797" y="-86" font-family="Arial" font-size="10.00" fill="#0d1876">2.64%</text>
<text text-anchor="middle" x="2797" y="-73" font-family="Arial" font-size="10.00" fill="#0d1876">9×</text>
</g>
<!-- 16 -->
<g id="node19" class="node"><title>16</title>
<polygon fill="#0d1676" stroke="#0d1676" points="3826,-157.5 3592,-157.5 3592,-110.5 3826,-110.5 3826,-157.5"/>
<text text-anchor="middle" x="3709" y="-144.5" font-family="Arial" font-size="10.00" fill="#ffffff">PerfectMatching::Expand(PerfectMatching::Node*)</text>
<text text-anchor="middle" x="3709" y="-131.5" font-family="Arial" font-size="10.00" fill="#ffffff">2.30%</text>
<text text-anchor="middle" x="3709" y="-118.5" font-family="Arial" font-size="10.00" fill="#ffffff">(2.30%)</text>
</g>
<!-- 17 -->
<g id="node20" class="node"><title>17</title>
<polygon fill="#0d1575" stroke="#0d1575" points="4075,-157.5 3835,-157.5 3835,-110.5 4075,-110.5 4075,-157.5"/>
<text text-anchor="middle" x="3955" y="-144.5" font-family="Arial" font-size="10.00" fill="#ffffff">PerfectMatching::Augment(PerfectMatching::Edge*)</text>
<text text-anchor="middle" x="3955" y="-131.5" font-family="Arial" font-size="10.00" fill="#ffffff">1.92%</text>
<text text-anchor="middle" x="3955" y="-118.5" font-family="Arial" font-size="10.00" fill="#ffffff">(1.92%)</text>
</g>
<!-- 18 -->
<g id="node21" class="node"><title>18</title>
<polygon fill="#0d1074" stroke="#0d1074" points="4288,-157.5 4084,-157.5 4084,-110.5 4288,-110.5 4288,-157.5"/>
<text text-anchor="middle" x="4186" y="-144.5" font-family="Arial" font-size="10.00" fill="#ffffff">PerfectMatching::GetDualSolution(int*, int*)</text>
<text text-anchor="middle" x="4186" y="-131.5" font-family="Arial" font-size="10.00" fill="#ffffff">0.79%</text>
<text text-anchor="middle" x="4186" y="-118.5" font-family="Arial" font-size="10.00" fill="#ffffff">(0.79%)</text>
</g>
</g>
</svg>
