<?xml version="1.0" encoding="UTF-8" standalone="no"?>
<!DOCTYPE svg PUBLIC "-//W3C//DTD SVG 1.1//EN"
 "http://www.w3.org/Graphics/SVG/1.1/DTD/svg11.dtd">
<!-- Generated by graphviz version 2.26.3 (20100126.1600)
 -->
<!-- Title: _anonymous_0 Pages: 1 -->
<svg width="2121pt" height="368pt"
 viewBox="0.00 0.00 2121.00 368.00" xmlns="http://www.w3.org/2000/svg" xmlns:xlink="http://www.w3.org/1999/xlink">
<g id="graph1" class="graph" transform="scale(1 1) rotate(0) translate(4 364)">
<title>_anonymous_0</title>
<polygon fill="white" stroke="white" points="-4,5 -4,-364 2118,-364 2118,5 -4,5"/>
<!-- 2 -->
<g id="node1" class="node"><title>2</title>
<polygon fill="#0c9b7a" stroke="#0c9b7a" points="417,-359.5 329,-359.5 329,-312.5 417,-312.5 417,-359.5"/>
<text text-anchor="middle" x="373" y="-346.5" font-family="Arial" font-size="10.00" fill="#ffffff">Simulation::run()</text>
<text text-anchor="middle" x="373" y="-333.5" font-family="Arial" font-size="10.00" fill="#ffffff">30.80%</text>
<text text-anchor="middle" x="373" y="-320.5" font-family="Arial" font-size="10.00" fill="#ffffff">(0.00%)</text>
</g>
<!-- 15 -->
<g id="node3" class="node"><title>15</title>
<polygon fill="#0c9b7a" stroke="#0c9b7a" points="746,-268 4.54747e-13,-268 0,-208 746,-208 746,-268"/>
<text text-anchor="middle" x="373" y="-255" font-family="Arial" font-size="10.00" fill="#ffffff">std::vector&lt;Vertex*, std::allocator&lt;Vertex*&gt; &gt;::_M_insert_aux(__gnu_cxx::__normal_iterator&lt;Vertex**, std::vector&lt;Vertex*, std::allocator&lt;Vertex*&gt; &gt; &gt;, Vertex* const&amp;)</text>
<text text-anchor="middle" x="373" y="-242" font-family="Arial" font-size="10.00" fill="#ffffff">30.80%</text>
<text text-anchor="middle" x="373" y="-229" font-family="Arial" font-size="10.00" fill="#ffffff">(0.00%)</text>
<text text-anchor="middle" x="373" y="-216" font-family="Arial" font-size="10.00" fill="#ffffff">201994×</text>
</g>
<!-- 2&#45;&gt;15 -->
<g id="edge2" class="edge"><title>2&#45;&gt;15</title>
<path fill="none" stroke="#0c9b7a" stroke-width="1.23" d="M373,-312.277C373,-300.782 373,-286.731 373,-273.956"/>
<polygon fill="#0c9b7a" stroke="#0c9b7a" points="374.96,-273.79 373,-268.19 371.04,-273.79 374.96,-273.79"/>
<text text-anchor="middle" x="390" y="-294" font-family="Arial" font-size="10.00" fill="#0c9b7a">30.80%</text>
<text text-anchor="middle" x="390" y="-281" font-family="Arial" font-size="10.00" fill="#0c9b7a">402×</text>
</g>
<!-- 15&#45;&gt;15 -->
<g id="edge10" class="edge"><title>15&#45;&gt;15</title>
<path fill="none" stroke="#0c9b7a" stroke-width="1.23" d="M746.058,-241.858C751.844,-240.733 755,-239.447 755,-238 755,-237.141 753.887,-236.338 751.772,-235.592"/>
<polygon fill="#0c9b7a" stroke="#0c9b7a" points="751.968,-233.62 746.058,-234.142 751.003,-237.42 751.968,-233.62"/>
<text text-anchor="middle" x="769" y="-235.5" font-family="Arial" font-size="10.00" fill="#0c9b7a">1804×</text>
</g>
<!-- 3 -->
<g id="node4" class="node"><title>3</title>
<polygon fill="#0c9b7a" stroke="#0c9b7a" points="476,-164 270,-164 270,-104 476,-104 476,-164"/>
<text text-anchor="middle" x="373" y="-151" font-family="Arial" font-size="10.00" fill="#ffffff">Lattice::evolute_and_correct(double, double)</text>
<text text-anchor="middle" x="373" y="-138" font-family="Arial" font-size="10.00" fill="#ffffff">30.71%</text>
<text text-anchor="middle" x="373" y="-125" font-family="Arial" font-size="10.00" fill="#ffffff">(30.06%)</text>
<text text-anchor="middle" x="373" y="-112" font-family="Arial" font-size="10.00" fill="#ffffff">10625×</text>
</g>
<!-- 15&#45;&gt;3 -->
<g id="edge8" class="edge"><title>15&#45;&gt;3</title>
<path fill="none" stroke="#0c9b7a" stroke-width="1.23" d="M351.358,-207.703C350.014,-204.854 348.859,-201.933 348,-199 344.751,-187.911 344.751,-184.089 348,-173 348.349,-171.809 348.747,-170.619 349.187,-169.435"/>
<polygon fill="#0c9b7a" stroke="#0c9b7a" points="350.99,-170.112 351.358,-164.297 347.444,-168.613 350.99,-170.112"/>
<text text-anchor="middle" x="365" y="-190" font-family="Arial" font-size="10.00" fill="#0c9b7a">30.71%</text>
<text text-anchor="middle" x="365" y="-177" font-family="Arial" font-size="10.00" fill="#0c9b7a">10625×</text>
</g>
<!-- 3&#45;&gt;15 -->
<g id="edge6" class="edge"><title>3&#45;&gt;15</title>
<path fill="none" stroke="#0c9b7a" stroke-width="1.23" d="M382.36,-164.059C383.027,-167.057 383.595,-170.073 384,-173 385.583,-184.447 385.583,-187.553 384,-199 383.848,-200.098 383.673,-201.208 383.479,-202.325"/>
<polygon fill="#0c9b7a" stroke="#0c9b7a" points="381.547,-202.17 382.36,-207.941 385.323,-202.923 381.547,-202.17"/>
<text text-anchor="middle" x="404" y="-183.5" font-family="Arial" font-size="10.00" fill="#0c9b7a">136200×</text>
</g>
<!-- 12 -->
<g id="node6" class="node"><title>12</title>
<polygon fill="#0d0f74" stroke="#0d0f74" points="464,-60 282,-60 282,-3.19744e-14 464,-1.06581e-14 464,-60"/>
<text text-anchor="middle" x="373" y="-47" font-family="Arial" font-size="10.00" fill="#ffffff">Lattice::syndromeZZZZ(int, int, double)</text>
<text text-anchor="middle" x="373" y="-34" font-family="Arial" font-size="10.00" fill="#ffffff">0.62%</text>
<text text-anchor="middle" x="373" y="-21" font-family="Arial" font-size="10.00" fill="#ffffff">(0.25%)</text>
<text text-anchor="middle" x="373" y="-8" font-family="Arial" font-size="10.00" fill="#ffffff">153833160×</text>
</g>
<!-- 3&#45;&gt;12 -->
<g id="edge4" class="edge"><title>3&#45;&gt;12</title>
<path fill="none" stroke="#0d0f74" stroke-width="0.5" d="M373,-103.919C373,-91.3068 373,-76.5891 373,-63.6214"/>
<polygon fill="#0d0f74" stroke="#0d0f74" points="374.225,-63.5135 373,-60.0135 371.775,-63.5135 374.225,-63.5135"/>
<text text-anchor="middle" x="400" y="-86" font-family="Arial" font-size="10.00" fill="#0d0f74">0.59%</text>
<text text-anchor="middle" x="400" y="-73" font-family="Arial" font-size="10.00" fill="#0d0f74">147620551×</text>
</g>
<!-- 4 -->
<g id="node8" class="node"><title>4</title>
<polygon fill="#0c758d" stroke="#0c758d" points="698,-359.5 426,-359.5 426,-312.5 698,-312.5 698,-359.5"/>
<text text-anchor="middle" x="562" y="-346.5" font-family="Arial" font-size="10.00" fill="#ffffff">PerfectMatching::AugmentBranch(PerfectMatching::Node*)</text>
<text text-anchor="middle" x="562" y="-333.5" font-family="Arial" font-size="10.00" fill="#ffffff">20.29%</text>
<text text-anchor="middle" x="562" y="-320.5" font-family="Arial" font-size="10.00" fill="#ffffff">(20.29%)</text>
</g>
<!-- 5 -->
<g id="node9" class="node"><title>5</title>
<polygon fill="#0c6489" stroke="#0c6489" points="973,-359.5 707,-359.5 707,-312.5 973,-312.5 973,-359.5"/>
<text text-anchor="middle" x="840" y="-346.5" font-family="Arial" font-size="10.00" fill="#ffffff">PerfectMatching::GrowTree(PerfectMatching::Node*, bool)</text>
<text text-anchor="middle" x="840" y="-333.5" font-family="Arial" font-size="10.00" fill="#ffffff">17.43%</text>
<text text-anchor="middle" x="840" y="-320.5" font-family="Arial" font-size="10.00" fill="#ffffff">(17.43%)</text>
</g>
<!-- 6 -->
<g id="node10" class="node"><title>6</title>
<polygon fill="#0d3b80" stroke="#0d3b80" points="1122,-359.5 982,-359.5 982,-312.5 1122,-312.5 1122,-359.5"/>
<text text-anchor="middle" x="1052" y="-346.5" font-family="Arial" font-size="10.00" fill="#ffffff">PerfectMatching::InitGlobal()</text>
<text text-anchor="middle" x="1052" y="-333.5" font-family="Arial" font-size="10.00" fill="#ffffff">10.02%</text>
<text text-anchor="middle" x="1052" y="-320.5" font-family="Arial" font-size="10.00" fill="#ffffff">(10.02%)</text>
</g>
<!-- 7 -->
<g id="node11" class="node"><title>7</title>
<polygon fill="#0d2d7c" stroke="#0d2d7c" points="1365,-359.5 1131,-359.5 1131,-312.5 1365,-312.5 1365,-359.5"/>
<text text-anchor="middle" x="1248" y="-346.5" font-family="Arial" font-size="10.00" fill="#ffffff">PerfectMatching::Expand(PerfectMatching::Node*)</text>
<text text-anchor="middle" x="1248" y="-333.5" font-family="Arial" font-size="10.00" fill="#ffffff">7.33%</text>
<text text-anchor="middle" x="1248" y="-320.5" font-family="Arial" font-size="10.00" fill="#ffffff">(7.33%)</text>
</g>
<!-- 8 -->
<g id="node12" class="node"><title>8</title>
<polygon fill="#0d2c7c" stroke="#0d2c7c" points="1534,-359.5 1374,-359.5 1374,-312.5 1534,-312.5 1534,-359.5"/>
<text text-anchor="middle" x="1454" y="-346.5" font-family="Arial" font-size="10.00" fill="#ffffff">PerfectMatching::InitGreedy(bool)</text>
<text text-anchor="middle" x="1454" y="-333.5" font-family="Arial" font-size="10.00" fill="#ffffff">7.01%</text>
<text text-anchor="middle" x="1454" y="-320.5" font-family="Arial" font-size="10.00" fill="#ffffff">(7.01%)</text>
</g>
<!-- 9 -->
<g id="node13" class="node"><title>9</title>
<polygon fill="#0d1e78" stroke="#0d1e78" points="1725,-359.5 1543,-359.5 1543,-312.5 1725,-312.5 1725,-359.5"/>
<text text-anchor="middle" x="1634" y="-346.5" font-family="Arial" font-size="10.00" fill="#ffffff">PerfectMatching::AddEdge(int, int, int)</text>
<text text-anchor="middle" x="1634" y="-333.5" font-family="Arial" font-size="10.00" fill="#ffffff">4.09%</text>
<text text-anchor="middle" x="1634" y="-320.5" font-family="Arial" font-size="10.00" fill="#ffffff">(4.09%)</text>
</g>
<!-- 10 -->
<g id="node14" class="node"><title>10</title>
<polygon fill="#0d1676" stroke="#0d1676" points="1964,-359.5 1734,-359.5 1734,-312.5 1964,-312.5 1964,-359.5"/>
<text text-anchor="middle" x="1849" y="-346.5" font-family="Arial" font-size="10.00" fill="#ffffff">PerfectMatching::Shrink(PerfectMatching::Edge*)</text>
<text text-anchor="middle" x="1849" y="-333.5" font-family="Arial" font-size="10.00" fill="#ffffff">2.24%</text>
<text text-anchor="middle" x="1849" y="-320.5" font-family="Arial" font-size="10.00" fill="#ffffff">(2.24%)</text>
</g>
<!-- 11 -->
<g id="node15" class="node"><title>11</title>
<polygon fill="#0d1074" stroke="#0d1074" points="2113,-359.5 1973,-359.5 1973,-312.5 2113,-312.5 2113,-359.5"/>
<text text-anchor="middle" x="2043" y="-346.5" font-family="Arial" font-size="10.00" fill="#ffffff">PerfectMatching::Solve(bool)</text>
<text text-anchor="middle" x="2043" y="-333.5" font-family="Arial" font-size="10.00" fill="#ffffff">0.72%</text>
<text text-anchor="middle" x="2043" y="-320.5" font-family="Arial" font-size="10.00" fill="#ffffff">(0.72%)</text>
</g>
</g>
</svg>
