<?xml version="1.0" encoding="UTF-8" standalone="no"?>
<!DOCTYPE svg PUBLIC "-//W3C//DTD SVG 1.1//EN"
 "http://www.w3.org/Graphics/SVG/1.1/DTD/svg11.dtd">
<!-- Generated by graphviz version 2.26.3 (20100126.1600)
 -->
<!-- Title: _anonymous_0 Pages: 1 -->
<svg width="1878pt" height="610pt"
 viewBox="0.00 0.00 1878.00 610.00" xmlns="http://www.w3.org/2000/svg" xmlns:xlink="http://www.w3.org/1999/xlink">
<g id="graph1" class="graph" transform="scale(1 1) rotate(0) translate(4 606)">
<title>_anonymous_0</title>
<polygon fill="white" stroke="white" points="-4,5 -4,-606 1875,-606 1875,5 -4,5"/>
<!-- 2 -->
<g id="node1" class="node"><title>2</title>
<polygon fill="#0c9b7b" stroke="#0c9b7b" points="417,-601.5 329,-601.5 329,-554.5 417,-554.5 417,-601.5"/>
<text text-anchor="middle" x="373" y="-588.5" font-family="Arial" font-size="10.00" fill="#ffffff">Simulation::run()</text>
<text text-anchor="middle" x="373" y="-575.5" font-family="Arial" font-size="10.00" fill="#ffffff">30.55%</text>
<text text-anchor="middle" x="373" y="-562.5" font-family="Arial" font-size="10.00" fill="#ffffff">(0.00%)</text>
</g>
<!-- 13 -->
<g id="node3" class="node"><title>13</title>
<polygon fill="#0c9b7b" stroke="#0c9b7b" points="746,-510 4.54747e-13,-510 0,-450 746,-450 746,-510"/>
<text text-anchor="middle" x="373" y="-497" font-family="Arial" font-size="10.00" fill="#ffffff">std::vector&lt;Vertex*, std::allocator&lt;Vertex*&gt; &gt;::_M_insert_aux(__gnu_cxx::__normal_iterator&lt;Vertex**, std::vector&lt;Vertex*, std::allocator&lt;Vertex*&gt; &gt; &gt;, Vertex* const&amp;)</text>
<text text-anchor="middle" x="373" y="-484" font-family="Arial" font-size="10.00" fill="#ffffff">30.55%</text>
<text text-anchor="middle" x="373" y="-471" font-family="Arial" font-size="10.00" fill="#ffffff">(0.00%)</text>
<text text-anchor="middle" x="373" y="-458" font-family="Arial" font-size="10.00" fill="#ffffff">95138×</text>
</g>
<!-- 2&#45;&gt;13 -->
<g id="edge2" class="edge"><title>2&#45;&gt;13</title>
<path fill="none" stroke="#0c9b7b" stroke-width="1.22" d="M373,-554.277C373,-542.782 373,-528.731 373,-515.956"/>
<polygon fill="#0c9b7b" stroke="#0c9b7b" points="374.925,-515.69 373,-510.19 371.075,-515.69 374.925,-515.69"/>
<text text-anchor="middle" x="390" y="-536" font-family="Arial" font-size="10.00" fill="#0c9b7b">30.55%</text>
<text text-anchor="middle" x="390" y="-523" font-family="Arial" font-size="10.00" fill="#0c9b7b">143×</text>
</g>
<!-- 13&#45;&gt;13 -->
<g id="edge14" class="edge"><title>13&#45;&gt;13</title>
<path fill="none" stroke="#0c9b7b" stroke-width="1.22" d="M746.058,-483.858C751.844,-482.733 755,-481.447 755,-480 755,-479.095 753.767,-478.254 751.43,-477.475"/>
<polygon fill="#0c9b7b" stroke="#0c9b7b" points="751.86,-475.599 746.058,-476.142 750.932,-479.335 751.86,-475.599"/>
<text text-anchor="middle" x="766" y="-477.5" font-family="Arial" font-size="10.00" fill="#0c9b7b">154×</text>
</g>
<!-- 3 -->
<g id="node4" class="node"><title>3</title>
<polygon fill="#0c9886" stroke="#0c9886" points="339,-406 133,-406 133,-346 339,-346 339,-406"/>
<text text-anchor="middle" x="236" y="-393" font-family="Arial" font-size="10.00" fill="#ffffff">Lattice::evolute_and_correct(double, double)</text>
<text text-anchor="middle" x="236" y="-380" font-family="Arial" font-size="10.00" fill="#ffffff">28.07%</text>
<text text-anchor="middle" x="236" y="-367" font-family="Arial" font-size="10.00" fill="#ffffff">(21.72%)</text>
<text text-anchor="middle" x="236" y="-354" font-family="Arial" font-size="10.00" fill="#ffffff">9079×</text>
</g>
<!-- 13&#45;&gt;3 -->
<g id="edge12" class="edge"><title>13&#45;&gt;3</title>
<path fill="none" stroke="#0c9886" stroke-width="1.12" d="M342.752,-449.736C330.579,-438.256 316.101,-425.444 302,-415 299.333,-413.025 296.559,-411.064 293.725,-409.134"/>
<polygon fill="#0c9886" stroke="#0c9886" points="294.665,-407.531 289.228,-406.129 292.604,-410.616 294.665,-407.531"/>
<text text-anchor="middle" x="349" y="-432" font-family="Arial" font-size="10.00" fill="#0c9886">28.07%</text>
<text text-anchor="middle" x="349" y="-419" font-family="Arial" font-size="10.00" fill="#0c9886">9079×</text>
</g>
<!-- 14 -->
<g id="node21" class="node"><title>14</title>
<polygon fill="#0d1274" stroke="#0d1274" points="553,-337 439,-337 439,-277 553,-277 553,-337"/>
<text text-anchor="middle" x="496" y="-324" font-family="Arial" font-size="10.00" fill="#ffffff">Lattice::Lattice(int, int)</text>
<text text-anchor="middle" x="496" y="-311" font-family="Arial" font-size="10.00" fill="#ffffff">1.31%</text>
<text text-anchor="middle" x="496" y="-298" font-family="Arial" font-size="10.00" fill="#ffffff">(0.08%)</text>
<text text-anchor="middle" x="496" y="-285" font-family="Arial" font-size="10.00" fill="#ffffff">9356×</text>
</g>
<!-- 13&#45;&gt;14 -->
<g id="edge16" class="edge"><title>13&#45;&gt;14</title>
<path fill="none" stroke="#0d1274" stroke-width="0.5" d="M443.381,-449.975C460.863,-438.875 477.35,-424.386 487,-406 497.377,-386.23 499.564,-361.158 499.189,-341.192"/>
<polygon fill="#0d1274" stroke="#0d1274" points="500.402,-340.735 499.081,-337.27 497.953,-340.802 500.402,-340.735"/>
<text text-anchor="middle" x="494" y="-432" font-family="Arial" font-size="10.00" fill="#0d1274">1.31%</text>
<text text-anchor="middle" x="494" y="-419" font-family="Arial" font-size="10.00" fill="#0d1274">9356×</text>
</g>
<!-- 15 -->
<g id="node23" class="node"><title>15</title>
<polygon fill="#0d1074" stroke="#0d1074" points="482,-406 348,-406 348,-346 482,-346 482,-406"/>
<text text-anchor="middle" x="415" y="-393" font-family="Arial" font-size="10.00" fill="#ffffff">Lattice::perfect_correction()</text>
<text text-anchor="middle" x="415" y="-380" font-family="Arial" font-size="10.00" fill="#ffffff">0.90%</text>
<text text-anchor="middle" x="415" y="-367" font-family="Arial" font-size="10.00" fill="#ffffff">(0.16%)</text>
<text text-anchor="middle" x="415" y="-354" font-family="Arial" font-size="10.00" fill="#ffffff">9595×</text>
</g>
<!-- 13&#45;&gt;15 -->
<g id="edge18" class="edge"><title>13&#45;&gt;15</title>
<path fill="none" stroke="#0d1074" stroke-width="0.5" d="M369.898,-449.833C369.87,-438.49 371.255,-425.748 376,-415 376.822,-413.139 377.776,-411.317 378.835,-409.543"/>
<polygon fill="#0d1074" stroke="#0d1074" points="379.991,-410.008 380.848,-406.4 377.928,-408.687 379.991,-410.008"/>
<text text-anchor="middle" x="390" y="-432" font-family="Arial" font-size="10.00" fill="#0d1074">0.90%</text>
<text text-anchor="middle" x="390" y="-419" font-family="Arial" font-size="10.00" fill="#0d1074">9595×</text>
</g>
<!-- 3&#45;&gt;13 -->
<g id="edge4" class="edge"><title>3&#45;&gt;13</title>
<path fill="none" stroke="#0c9886" stroke-width="1.12" d="M246.834,-406.229C252.459,-418.383 260.41,-431.693 271,-441 273.225,-442.956 275.558,-444.818 277.979,-446.591"/>
<polygon fill="#0c9886" stroke="#0c9886" points="277.015,-448.18 282.424,-449.686 279.135,-445.135 277.015,-448.18"/>
<text text-anchor="middle" x="287.5" y="-425.5" font-family="Arial" font-size="10.00" fill="#0c9886">75697×</text>
</g>
<!-- 7 -->
<g id="node7" class="node"><title>7</title>
<polygon fill="#0d297b" stroke="#0d297b" points="478,-268 296,-268 296,-208 478,-208 478,-268"/>
<text text-anchor="middle" x="387" y="-255" font-family="Arial" font-size="10.00" fill="#ffffff">Lattice::syndromeZZZZ(int, int, double)</text>
<text text-anchor="middle" x="387" y="-242" font-family="Arial" font-size="10.00" fill="#ffffff">6.46%</text>
<text text-anchor="middle" x="387" y="-229" font-family="Arial" font-size="10.00" fill="#ffffff">(2.34%)</text>
<text text-anchor="middle" x="387" y="-216" font-family="Arial" font-size="10.00" fill="#ffffff">5430746×</text>
</g>
<!-- 3&#45;&gt;7 -->
<g id="edge6" class="edge"><title>3&#45;&gt;7</title>
<path fill="none" stroke="#0d267a" stroke-width="0.5" d="M268.143,-345.927C289.305,-326.211 317.676,-299.934 343,-277 345.284,-274.932 347.641,-272.809 350.023,-270.673"/>
<polygon fill="#0d267a" stroke="#0d267a" points="351.036,-271.41 352.826,-268.162 349.402,-269.585 351.036,-271.41"/>
<text text-anchor="middle" x="364.5" y="-311" font-family="Arial" font-size="10.00" fill="#0d267a">5.74%</text>
<text text-anchor="middle" x="364.5" y="-298" font-family="Arial" font-size="10.00" fill="#0d267a">4826009×</text>
</g>
<!-- 9 -->
<g id="node12" class="node"><title>9</title>
<polygon fill="#0d2279" stroke="#0d2279" points="511,-164 397,-164 397,-104 511,-104 511,-164"/>
<text text-anchor="middle" x="454" y="-151" font-family="Arial" font-size="10.00" fill="#ffffff">Operator::Operator(int)</text>
<text text-anchor="middle" x="454" y="-138" font-family="Arial" font-size="10.00" fill="#ffffff">4.98%</text>
<text text-anchor="middle" x="454" y="-125" font-family="Arial" font-size="10.00" fill="#ffffff">(1.41%)</text>
<text text-anchor="middle" x="454" y="-112" font-family="Arial" font-size="10.00" fill="#ffffff">14001676×</text>
</g>
<!-- 7&#45;&gt;9 -->
<g id="edge8" class="edge"><title>7&#45;&gt;9</title>
<path fill="none" stroke="#0d1d78" stroke-width="0.5" d="M406.379,-207.919C414.643,-195.091 424.31,-180.085 432.767,-166.958"/>
<polygon fill="#0d1d78" stroke="#0d1d78" points="433.799,-167.619 434.664,-164.014 431.739,-166.292 433.799,-167.619"/>
<text text-anchor="middle" x="452.5" y="-190" font-family="Arial" font-size="10.00" fill="#0d1d78">3.73%</text>
<text text-anchor="middle" x="452.5" y="-177" font-family="Arial" font-size="10.00" fill="#0d1d78">10487123×</text>
</g>
<!-- 4 -->
<g id="node8" class="node"><title>4</title>
<polygon fill="#0c958e" stroke="#0c958e" points="608,-601.5 426,-601.5 426,-554.5 608,-554.5 608,-601.5"/>
<text text-anchor="middle" x="517" y="-588.5" font-family="Arial" font-size="10.00" fill="#ffffff">PerfectMatching::AddEdge(int, int, int)</text>
<text text-anchor="middle" x="517" y="-575.5" font-family="Arial" font-size="10.00" fill="#ffffff">26.25%</text>
<text text-anchor="middle" x="517" y="-562.5" font-family="Arial" font-size="10.00" fill="#ffffff">(26.25%)</text>
</g>
<!-- 5 -->
<g id="node9" class="node"><title>5</title>
<polygon fill="#0c718c" stroke="#0c718c" points="777,-601.5 617,-601.5 617,-554.5 777,-554.5 777,-601.5"/>
<text text-anchor="middle" x="697" y="-588.5" font-family="Arial" font-size="10.00" fill="#ffffff">PerfectMatching::InitGreedy(bool)</text>
<text text-anchor="middle" x="697" y="-575.5" font-family="Arial" font-size="10.00" fill="#ffffff">19.69%</text>
<text text-anchor="middle" x="697" y="-562.5" font-family="Arial" font-size="10.00" fill="#ffffff">(19.69%)</text>
</g>
<!-- 6 -->
<g id="node10" class="node"><title>6</title>
<polygon fill="#0d3d80" stroke="#0d3d80" points="926,-601.5 786,-601.5 786,-554.5 926,-554.5 926,-601.5"/>
<text text-anchor="middle" x="856" y="-588.5" font-family="Arial" font-size="10.00" fill="#ffffff">PerfectMatching::InitGlobal()</text>
<text text-anchor="middle" x="856" y="-575.5" font-family="Arial" font-size="10.00" fill="#ffffff">10.55%</text>
<text text-anchor="middle" x="856" y="-562.5" font-family="Arial" font-size="10.00" fill="#ffffff">(10.55%)</text>
</g>
<!-- 11 -->
<g id="node15" class="node"><title>11</title>
<polygon fill="#0d1c77" stroke="#0d1c77" points="791,-60 117,-60 117,-3.19744e-14 791,-1.06581e-14 791,-60"/>
<text text-anchor="middle" x="454" y="-47" font-family="Arial" font-size="10.00" fill="#ffffff">std::vector&lt;pauli, std::allocator&lt;pauli&gt; &gt;::_M_insert_aux(__gnu_cxx::__normal_iterator&lt;pauli*, std::vector&lt;pauli, std::allocator&lt;pauli&gt; &gt; &gt;, pauli const&amp;)</text>
<text text-anchor="middle" x="454" y="-34" font-family="Arial" font-size="10.00" fill="#ffffff">3.59%</text>
<text text-anchor="middle" x="454" y="-21" font-family="Arial" font-size="10.00" fill="#ffffff">(3.59%)</text>
<text text-anchor="middle" x="454" y="-8" font-family="Arial" font-size="10.00" fill="#ffffff">34935386×</text>
</g>
<!-- 9&#45;&gt;11 -->
<g id="edge10" class="edge"><title>9&#45;&gt;11</title>
<path fill="none" stroke="#0d1c77" stroke-width="0.5" d="M454,-103.919C454,-91.3068 454,-76.5891 454,-63.6214"/>
<polygon fill="#0d1c77" stroke="#0d1c77" points="455.225,-63.5135 454,-60.0135 452.775,-63.5135 455.225,-63.5135"/>
<text text-anchor="middle" x="478.5" y="-86" font-family="Arial" font-size="10.00" fill="#0d1c77">3.57%</text>
<text text-anchor="middle" x="478.5" y="-73" font-family="Arial" font-size="10.00" fill="#0d1c77">34712194×</text>
</g>
<!-- 8 -->
<g id="node13" class="node"><title>8</title>
<polygon fill="#0d267a" stroke="#0d267a" points="1201,-601.5 935,-601.5 935,-554.5 1201,-554.5 1201,-601.5"/>
<text text-anchor="middle" x="1068" y="-588.5" font-family="Arial" font-size="10.00" fill="#ffffff">PerfectMatching::GrowTree(PerfectMatching::Node*, bool)</text>
<text text-anchor="middle" x="1068" y="-575.5" font-family="Arial" font-size="10.00" fill="#ffffff">5.70%</text>
<text text-anchor="middle" x="1068" y="-562.5" font-family="Arial" font-size="10.00" fill="#ffffff">(5.70%)</text>
</g>
<!-- 10 -->
<g id="node16" class="node"><title>10</title>
<polygon fill="#0d2078" stroke="#0d2078" points="1482,-601.5 1210,-601.5 1210,-554.5 1482,-554.5 1482,-601.5"/>
<text text-anchor="middle" x="1346" y="-588.5" font-family="Arial" font-size="10.00" fill="#ffffff">PerfectMatching::AugmentBranch(PerfectMatching::Node*)</text>
<text text-anchor="middle" x="1346" y="-575.5" font-family="Arial" font-size="10.00" fill="#ffffff">4.38%</text>
<text text-anchor="middle" x="1346" y="-562.5" font-family="Arial" font-size="10.00" fill="#ffffff">(4.38%)</text>
</g>
<!-- 12 -->
<g id="node17" class="node"><title>12</title>
<polygon fill="#0d1475" stroke="#0d1475" points="1721,-601.5 1491,-601.5 1491,-554.5 1721,-554.5 1721,-601.5"/>
<text text-anchor="middle" x="1606" y="-588.5" font-family="Arial" font-size="10.00" fill="#ffffff">PerfectMatching::Shrink(PerfectMatching::Edge*)</text>
<text text-anchor="middle" x="1606" y="-575.5" font-family="Arial" font-size="10.00" fill="#ffffff">1.64%</text>
<text text-anchor="middle" x="1606" y="-562.5" font-family="Arial" font-size="10.00" fill="#ffffff">(1.64%)</text>
</g>
<!-- 14&#45;&gt;9 -->
<g id="edge20" class="edge"><title>14&#45;&gt;9</title>
<path fill="none" stroke="#0d1274" stroke-width="0.5" d="M495.94,-276.84C495.016,-249.084 491.399,-207.168 479,-173 478.348,-171.204 477.603,-169.406 476.786,-167.622"/>
<polygon fill="#0d1274" stroke="#0d1274" points="477.868,-167.046 475.243,-164.427 475.662,-168.112 477.868,-167.046"/>
<text text-anchor="middle" x="516.5" y="-242" font-family="Arial" font-size="10.00" fill="#0d1274">1.24%</text>
<text text-anchor="middle" x="516.5" y="-229" font-family="Arial" font-size="10.00" fill="#0d1274">3477281×</text>
</g>
<!-- 15&#45;&gt;13 -->
<g id="edge22" class="edge"><title>15&#45;&gt;13</title>
<path fill="none" stroke="#0d1074" stroke-width="0.5" d="M411.781,-406.294C409.861,-417.531 406.816,-430.169 402,-441 401.186,-442.831 400.273,-444.658 399.287,-446.466"/>
<polygon fill="#0d1074" stroke="#0d1074" points="398.114,-446.05 397.439,-449.696 400.24,-447.267 398.114,-446.05"/>
<text text-anchor="middle" x="426.5" y="-425.5" font-family="Arial" font-size="10.00" fill="#0d1074">19144×</text>
</g>
<!-- 15&#45;&gt;7 -->
<g id="edge24" class="edge"><title>15&#45;&gt;7</title>
<path fill="none" stroke="#0d1074" stroke-width="0.5" d="M399.859,-345.705C398.765,-342.808 397.786,-339.878 397,-337 391.241,-315.908 388.732,-291.474 387.668,-272.158"/>
<polygon fill="#0d1074" stroke="#0d1074" points="388.876,-271.798 387.473,-268.365 386.429,-271.923 388.876,-271.798"/>
<text text-anchor="middle" x="416" y="-311" font-family="Arial" font-size="10.00" fill="#0d1074">0.72%</text>
<text text-anchor="middle" x="416" y="-298" font-family="Arial" font-size="10.00" fill="#0d1074">604737×</text>
</g>
<!-- 16 -->
<g id="node27" class="node"><title>16</title>
<polygon fill="#0d1074" stroke="#0d1074" points="1870,-601.5 1730,-601.5 1730,-554.5 1870,-554.5 1870,-601.5"/>
<text text-anchor="middle" x="1800" y="-588.5" font-family="Arial" font-size="10.00" fill="#ffffff">PerfectMatching::Solve(bool)</text>
<text text-anchor="middle" x="1800" y="-575.5" font-family="Arial" font-size="10.00" fill="#ffffff">0.78%</text>
<text text-anchor="middle" x="1800" y="-562.5" font-family="Arial" font-size="10.00" fill="#ffffff">(0.78%)</text>
</g>
</g>
</svg>
