<?xml version="1.0" encoding="UTF-8" standalone="no"?>
<!DOCTYPE svg PUBLIC "-//W3C//DTD SVG 1.1//EN"
 "http://www.w3.org/Graphics/SVG/1.1/DTD/svg11.dtd">
<!-- Generated by graphviz version 2.26.3 (20100126.1600)
 -->
<!-- Title: _anonymous_0 Pages: 1 -->
<svg width="888pt" height="576pt"
 viewBox="0.00 0.00 888.00 576.00" xmlns="http://www.w3.org/2000/svg" xmlns:xlink="http://www.w3.org/1999/xlink">
<g id="graph1" class="graph" transform="scale(1 1) rotate(0) translate(4 572)">
<title>_anonymous_0</title>
<polygon fill="white" stroke="white" points="-4,5 -4,-572 885,-572 885,5 -4,5"/>
<!-- 1 -->
<g id="node1" class="node"><title>1</title>
<polygon fill="#ec7803" stroke="#ec7803" points="655,-476 297,-476 297,-416 655,-416 655,-476"/>
<text text-anchor="middle" x="476" y="-463" font-family="Arial" font-size="10.00" fill="#ffffff">std::vector&lt;bool, std::allocator&lt;bool&gt; &gt;::_M_insert_aux(std::_Bit_iterator, bool)</text>
<text text-anchor="middle" x="476" y="-450" font-family="Arial" font-size="10.00" fill="#ffffff">87.50%</text>
<text text-anchor="middle" x="476" y="-437" font-family="Arial" font-size="10.00" fill="#ffffff">(0.00%)</text>
<text text-anchor="middle" x="476" y="-424" font-family="Arial" font-size="10.00" fill="#ffffff">10×</text>
</g>
<!-- 9 -->
<g id="node3" class="node"><title>9</title>
<polygon fill="#0d397f" stroke="#0d397f" points="544,-268 408,-268 408,-208 544,-208 544,-268"/>
<text text-anchor="middle" x="476" y="-255" font-family="Arial" font-size="10.00" fill="#ffffff">Lattice::success(Operator*)</text>
<text text-anchor="middle" x="476" y="-242" font-family="Arial" font-size="10.00" fill="#ffffff">9.59%</text>
<text text-anchor="middle" x="476" y="-229" font-family="Arial" font-size="10.00" fill="#ffffff">(4.17%)</text>
<text text-anchor="middle" x="476" y="-216" font-family="Arial" font-size="10.00" fill="#ffffff">5896×</text>
</g>
<!-- 1&#45;&gt;9 -->
<g id="edge2" class="edge"><title>1&#45;&gt;9</title>
<path fill="none" stroke="#0d397f" stroke-width="0.5" d="M476,-415.755C476,-377.552 476,-311.993 476,-272.064"/>
<polygon fill="#0d397f" stroke="#0d397f" points="477.225,-271.781 476,-268.281 474.775,-271.782 477.225,-271.781"/>
<text text-anchor="middle" x="490" y="-346" font-family="Arial" font-size="10.00" fill="#0d397f">9.59%</text>
<text text-anchor="middle" x="490" y="-333" font-family="Arial" font-size="10.00" fill="#0d397f">5896×</text>
</g>
<!-- 3 -->
<g id="node5" class="node"><title>3</title>
<polygon fill="#0ab122" stroke="#0ab122" points="394,-268 262,-268 262,-208 394,-208 394,-268"/>
<text text-anchor="middle" x="328" y="-255" font-family="Arial" font-size="10.00" fill="#ffffff">Lattice::Lattice(int, double)</text>
<text text-anchor="middle" x="328" y="-242" font-family="Arial" font-size="10.00" fill="#ffffff">46.39%</text>
<text text-anchor="middle" x="328" y="-229" font-family="Arial" font-size="10.00" fill="#ffffff">(8.33%)</text>
<text text-anchor="middle" x="328" y="-216" font-family="Arial" font-size="10.00" fill="#ffffff">5885×</text>
</g>
<!-- 1&#45;&gt;3 -->
<g id="edge4" class="edge"><title>1&#45;&gt;3</title>
<path fill="none" stroke="#0ab122" stroke-width="1.86" d="M454.48,-415.755C427.735,-378.168 382.149,-314.101 353.627,-274.016"/>
<polygon fill="#0ab122" stroke="#0ab122" points="355.428,-272.442 349.546,-268.281 351.55,-275.202 355.428,-272.442"/>
<text text-anchor="middle" x="439" y="-346" font-family="Arial" font-size="10.00" fill="#0ab122">46.39%</text>
<text text-anchor="middle" x="439" y="-333" font-family="Arial" font-size="10.00" fill="#0ab122">5885×</text>
</g>
<!-- 5 -->
<g id="node7" class="node"><title>5</title>
<polygon fill="#0b9c76" stroke="#0b9c76" points="654,-372 542,-372 542,-312 654,-312 654,-372"/>
<text text-anchor="middle" x="598" y="-359" font-family="Arial" font-size="10.00" fill="#ffffff">Lattice::correctMesh()</text>
<text text-anchor="middle" x="598" y="-346" font-family="Arial" font-size="10.00" fill="#ffffff">31.51%</text>
<text text-anchor="middle" x="598" y="-333" font-family="Arial" font-size="10.00" fill="#ffffff">(4.17%)</text>
<text text-anchor="middle" x="598" y="-320" font-family="Arial" font-size="10.00" fill="#ffffff">5520×</text>
</g>
<!-- 1&#45;&gt;5 -->
<g id="edge6" class="edge"><title>1&#45;&gt;5</title>
<path fill="none" stroke="#0b9c76" stroke-width="1.26" d="M511.287,-415.919C525.956,-403.415 543.052,-388.841 558.169,-375.954"/>
<polygon fill="#0b9c76" stroke="#0b9c76" points="559.802,-377.138 562.792,-372.014 557.259,-374.155 559.802,-377.138"/>
<text text-anchor="middle" x="568" y="-398" font-family="Arial" font-size="10.00" fill="#0b9c76">31.51%</text>
<text text-anchor="middle" x="568" y="-385" font-family="Arial" font-size="10.00" fill="#0b9c76">5520×</text>
</g>
<!-- 4 -->
<g id="node13" class="node"><title>4</title>
<polygon fill="#0b9f6d" stroke="#0b9f6d" points="480,-164 366,-164 366,-104 480,-104 480,-164"/>
<text text-anchor="middle" x="423" y="-151" font-family="Arial" font-size="10.00" fill="#ffffff">Operator::Operator(int)</text>
<text text-anchor="middle" x="423" y="-138" font-family="Arial" font-size="10.00" fill="#ffffff">33.42%</text>
<text text-anchor="middle" x="423" y="-125" font-family="Arial" font-size="10.00" fill="#ffffff">(16.67%)</text>
<text text-anchor="middle" x="423" y="-112" font-family="Arial" font-size="10.00" fill="#ffffff">2172128×</text>
</g>
<!-- 9&#45;&gt;4 -->
<g id="edge24" class="edge"><title>9&#45;&gt;4</title>
<path fill="none" stroke="#0d0d73" stroke-width="0.5" d="M460.67,-207.919C454.188,-195.199 446.614,-180.337 439.965,-167.289"/>
<polygon fill="#0d0d73" stroke="#0d0d73" points="440.976,-166.576 438.295,-164.014 438.793,-167.688 440.976,-166.576"/>
<text text-anchor="middle" x="472" y="-190" font-family="Arial" font-size="10.00" fill="#0d0d73">0.17%</text>
<text text-anchor="middle" x="472" y="-177" font-family="Arial" font-size="10.00" fill="#0d0d73">11093×</text>
</g>
<!-- 11 -->
<g id="node21" class="node"><title>11</title>
<polygon fill="#0d327d" stroke="#0d327d" points="858,-164 708,-164 708,-104 858,-104 858,-164"/>
<text text-anchor="middle" x="783" y="-151" font-family="Arial" font-size="10.00" fill="#ffffff">Operator::commute(Operator&amp;)</text>
<text text-anchor="middle" x="783" y="-138" font-family="Arial" font-size="10.00" fill="#ffffff">8.33%</text>
<text text-anchor="middle" x="783" y="-125" font-family="Arial" font-size="10.00" fill="#ffffff">(8.33%)</text>
<text text-anchor="middle" x="783" y="-112" font-family="Arial" font-size="10.00" fill="#ffffff">364876×</text>
</g>
<!-- 9&#45;&gt;11 -->
<g id="edge26" class="edge"><title>9&#45;&gt;11</title>
<path fill="none" stroke="#0d0e73" stroke-width="0.5" d="M544.229,-210.788C549.54,-207.257 554.556,-203.337 559,-199 568.246,-189.977 561.248,-180.162 572,-173 596.47,-156.701 675.279,-170.287 704,-164 704.161,-163.965 704.323,-163.929 704.484,-163.893"/>
<polygon fill="#0d0e73" stroke="#0d0e73" points="704.756,-165.088 707.888,-163.103 704.202,-162.701 704.756,-165.088"/>
<text text-anchor="middle" x="588" y="-190" font-family="Arial" font-size="10.00" fill="#0d0e73">0.27%</text>
<text text-anchor="middle" x="588" y="-177" font-family="Arial" font-size="10.00" fill="#0d0e73">11767×</text>
</g>
<!-- 12 -->
<g id="node26" class="node"><title>12</title>
<polygon fill="#0d2078" stroke="#0d2078" points="699,-164 489,-164 489,-104 699,-104 699,-164"/>
<text text-anchor="middle" x="594" y="-151" font-family="Arial" font-size="10.00" fill="#ffffff">operator*(Operator const&amp;, Operator const&amp;)</text>
<text text-anchor="middle" x="594" y="-138" font-family="Arial" font-size="10.00" fill="#ffffff">4.39%</text>
<text text-anchor="middle" x="594" y="-125" font-family="Arial" font-size="10.00" fill="#ffffff">(4.17%)</text>
<text text-anchor="middle" x="594" y="-112" font-family="Arial" font-size="10.00" fill="#ffffff">5549×</text>
</g>
<!-- 9&#45;&gt;12 -->
<g id="edge28" class="edge"><title>9&#45;&gt;12</title>
<path fill="none" stroke="#0d2078" stroke-width="0.5" d="M499.347,-207.883C509.087,-196.295 520.933,-183.369 533,-173 535.646,-170.727 538.434,-168.488 541.304,-166.303"/>
<polygon fill="#0d2078" stroke="#0d2078" points="542.131,-167.215 544.199,-164.137 540.663,-165.253 542.131,-167.215"/>
<text text-anchor="middle" x="547" y="-190" font-family="Arial" font-size="10.00" fill="#0d2078">4.39%</text>
<text text-anchor="middle" x="547" y="-177" font-family="Arial" font-size="10.00" fill="#0d2078">5549×</text>
</g>
<!-- 8 -->
<g id="node11" class="node"><title>8</title>
<polygon fill="#0d4883" stroke="#0d4883" points="357,-164 183,-164 183,-104 357,-104 357,-164"/>
<text text-anchor="middle" x="270" y="-151" font-family="Arial" font-size="10.00" fill="#ffffff">Operator::generateRandom(double&amp;)</text>
<text text-anchor="middle" x="270" y="-138" font-family="Arial" font-size="10.00" fill="#ffffff">12.50%</text>
<text text-anchor="middle" x="270" y="-125" font-family="Arial" font-size="10.00" fill="#ffffff">(12.50%)</text>
<text text-anchor="middle" x="270" y="-112" font-family="Arial" font-size="10.00" fill="#ffffff">717421×</text>
</g>
<!-- 3&#45;&gt;8 -->
<g id="edge10" class="edge"><title>3&#45;&gt;8</title>
<path fill="none" stroke="#0d4883" stroke-width="0.5" d="M311.224,-207.919C304.13,-195.199 295.842,-180.337 288.565,-167.289"/>
<polygon fill="#0d4883" stroke="#0d4883" points="289.513,-166.474 286.738,-164.014 287.373,-167.667 289.513,-166.474"/>
<text text-anchor="middle" x="325" y="-190" font-family="Arial" font-size="10.00" fill="#0d4883">12.50%</text>
<text text-anchor="middle" x="325" y="-177" font-family="Arial" font-size="10.00" fill="#0d4883">717421×</text>
</g>
<!-- 3&#45;&gt;4 -->
<g id="edge12" class="edge"><title>3&#45;&gt;4</title>
<path fill="none" stroke="#0c8090" stroke-width="0.89" d="M355.478,-207.919C366.999,-195.307 380.443,-180.589 392.288,-167.621"/>
<polygon fill="#0c8090" stroke="#0c8090" points="393.628,-168.593 395.584,-164.014 391.199,-166.374 393.628,-168.593"/>
<text text-anchor="middle" x="408.5" y="-190" font-family="Arial" font-size="10.00" fill="#0c8090">22.13%</text>
<text text-anchor="middle" x="408.5" y="-177" font-family="Arial" font-size="10.00" fill="#0c8090">1437943×</text>
</g>
<!-- 14 -->
<g id="node15" class="node"><title>14</title>
<polygon fill="#0d1b77" stroke="#0d1b77" points="174,-164 8.52651e-14,-164 0,-104 174,-104 174,-164"/>
<text text-anchor="middle" x="87" y="-151" font-family="Arial" font-size="10.00" fill="#ffffff">Operator::Operator(Operator const&amp;)</text>
<text text-anchor="middle" x="87" y="-138" font-family="Arial" font-size="10.00" fill="#ffffff">3.43%</text>
<text text-anchor="middle" x="87" y="-125" font-family="Arial" font-size="10.00" fill="#ffffff">(0.00%)</text>
<text text-anchor="middle" x="87" y="-112" font-family="Arial" font-size="10.00" fill="#ffffff">741937×</text>
</g>
<!-- 3&#45;&gt;14 -->
<g id="edge14" class="edge"><title>3&#45;&gt;14</title>
<path fill="none" stroke="#0d1b77" stroke-width="0.5" d="M261.827,-209.444C230.366,-195.868 192.657,-179.595 160.327,-165.643"/>
<polygon fill="#0d1b77" stroke="#0d1b77" points="160.514,-164.39 156.815,-164.127 159.543,-166.639 160.514,-164.39"/>
<text text-anchor="middle" x="256" y="-190" font-family="Arial" font-size="10.00" fill="#0d1b77">3.43%</text>
<text text-anchor="middle" x="256" y="-177" font-family="Arial" font-size="10.00" fill="#0d1b77">741937×</text>
</g>
<!-- 6 -->
<g id="node19" class="node"><title>6</title>
<polygon fill="#0c978a" stroke="#0c978a" points="701,-268 553,-268 553,-208 701,-208 701,-268"/>
<text text-anchor="middle" x="627" y="-255" font-family="Arial" font-size="10.00" fill="#ffffff">Lattice::syndromeZZZZ(int, int)</text>
<text text-anchor="middle" x="627" y="-242" font-family="Arial" font-size="10.00" fill="#ffffff">27.35%</text>
<text text-anchor="middle" x="627" y="-229" font-family="Arial" font-size="10.00" fill="#ffffff">(8.33%)</text>
<text text-anchor="middle" x="627" y="-216" font-family="Arial" font-size="10.00" fill="#ffffff">368832×</text>
</g>
<!-- 5&#45;&gt;6 -->
<g id="edge18" class="edge"><title>5&#45;&gt;6</title>
<path fill="none" stroke="#0c978a" stroke-width="1.09" d="M606.388,-311.919C609.755,-299.846 613.659,-285.843 617.159,-273.293"/>
<polygon fill="#0c978a" stroke="#0c978a" points="618.987,-273.511 618.631,-268.014 615.481,-272.534 618.987,-273.511"/>
<text text-anchor="middle" x="634" y="-294" font-family="Arial" font-size="10.00" fill="#0c978a">27.35%</text>
<text text-anchor="middle" x="634" y="-281" font-family="Arial" font-size="10.00" fill="#0c978a">368832×</text>
</g>
<!-- 2 -->
<g id="node8" class="node"><title>2</title>
<polygon fill="#ec7803" stroke="#ec7803" points="520,-567.5 432,-567.5 432,-520.5 520,-520.5 520,-567.5"/>
<text text-anchor="middle" x="476" y="-554.5" font-family="Arial" font-size="10.00" fill="#ffffff">Simulation::run()</text>
<text text-anchor="middle" x="476" y="-541.5" font-family="Arial" font-size="10.00" fill="#ffffff">87.50%</text>
<text text-anchor="middle" x="476" y="-528.5" font-family="Arial" font-size="10.00" fill="#ffffff">(0.00%)</text>
</g>
<!-- 2&#45;&gt;1 -->
<g id="edge8" class="edge"><title>2&#45;&gt;1</title>
<path fill="none" stroke="#ec7803" stroke-width="3.5" d="M476,-520.277C476,-509.921 476,-497.491 476,-485.788"/>
<polygon fill="#ec7803" stroke="#ec7803" points="479.29,-485.59 476,-476.19 472.71,-485.59 479.29,-485.59"/>
<text text-anchor="middle" x="493" y="-502" font-family="Arial" font-size="10.00" fill="#ec7803">87.50%</text>
<text text-anchor="middle" x="493" y="-489" font-family="Arial" font-size="10.00" fill="#ec7803">10×</text>
</g>
<!-- 7 -->
<g id="node17" class="node"><title>7</title>
<polygon fill="#0c788e" stroke="#0c788e" points="760,-60 86,-60 86,-3.19744e-14 760,-1.06581e-14 760,-60"/>
<text text-anchor="middle" x="423" y="-47" font-family="Arial" font-size="10.00" fill="#ffffff">std::vector&lt;pauli, std::allocator&lt;pauli&gt; &gt;::_M_insert_aux(__gnu_cxx::__normal_iterator&lt;pauli*, std::vector&lt;pauli, std::allocator&lt;pauli&gt; &gt; &gt;, pauli const&amp;)</text>
<text text-anchor="middle" x="423" y="-34" font-family="Arial" font-size="10.00" fill="#ffffff">20.83%</text>
<text text-anchor="middle" x="423" y="-21" font-family="Arial" font-size="10.00" fill="#ffffff">(20.83%)</text>
<text text-anchor="middle" x="423" y="-8" font-family="Arial" font-size="10.00" fill="#ffffff">4479582×</text>
</g>
<!-- 4&#45;&gt;7 -->
<g id="edge16" class="edge"><title>4&#45;&gt;7</title>
<path fill="none" stroke="#0c6088" stroke-width="0.67" d="M423,-103.919C423,-91.5224 423,-77.0917 423,-64.288"/>
<polygon fill="#0c6088" stroke="#0c6088" points="424.435,-64.1135 423,-60.0135 421.565,-64.1135 424.435,-64.1135"/>
<text text-anchor="middle" x="444.5" y="-86" font-family="Arial" font-size="10.00" fill="#0c6088">16.76%</text>
<text text-anchor="middle" x="444.5" y="-73" font-family="Arial" font-size="10.00" fill="#0c6088">3603333×</text>
</g>
<!-- 14&#45;&gt;7 -->
<g id="edge32" class="edge"><title>14&#45;&gt;7</title>
<path fill="none" stroke="#0d1b77" stroke-width="0.5" d="M174.166,-105.214C175.452,-104.806 176.731,-104.401 178,-104 223.837,-89.5248 274.685,-74.0688 318.124,-61.046"/>
<polygon fill="#0d1b77" stroke="#0d1b77" points="318.503,-62.2114 321.504,-60.0332 317.799,-59.8645 318.503,-62.2114"/>
<text text-anchor="middle" x="305" y="-86" font-family="Arial" font-size="10.00" fill="#0d1b77">3.43%</text>
<text text-anchor="middle" x="305" y="-73" font-family="Arial" font-size="10.00" fill="#0d1b77">738093×</text>
</g>
<!-- 6&#45;&gt;4 -->
<g id="edge22" class="edge"><title>6&#45;&gt;4</title>
<path fill="none" stroke="#0d4081" stroke-width="0.5" d="M624.594,-207.902C621.955,-195.159 616.628,-181.356 606,-173 584.803,-156.335 511.04,-170.996 485,-164 484.596,-163.891 484.191,-163.78 483.786,-163.666"/>
<polygon fill="#0d4081" stroke="#0d4081" points="483.834,-162.402 480.13,-162.576 483.134,-164.75 483.834,-162.402"/>
<text text-anchor="middle" x="640.5" y="-190" font-family="Arial" font-size="10.00" fill="#0d4081">10.95%</text>
<text text-anchor="middle" x="640.5" y="-177" font-family="Arial" font-size="10.00" fill="#0d4081">711466×</text>
</g>
<!-- 6&#45;&gt;11 -->
<g id="edge20" class="edge"><title>6&#45;&gt;11</title>
<path fill="none" stroke="#0d317d" stroke-width="0.5" d="M672.122,-207.919C691.848,-194.768 715.009,-179.327 735.047,-165.969"/>
<polygon fill="#0d317d" stroke="#0d317d" points="735.747,-166.974 737.98,-164.014 734.388,-164.936 735.747,-166.974"/>
<text text-anchor="middle" x="742" y="-190" font-family="Arial" font-size="10.00" fill="#0d317d">8.06%</text>
<text text-anchor="middle" x="742" y="-177" font-family="Arial" font-size="10.00" fill="#0d317d">353109×</text>
</g>
<!-- 12&#45;&gt;7 -->
<g id="edge30" class="edge"><title>12&#45;&gt;7</title>
<path fill="none" stroke="#0d0e73" stroke-width="0.5" d="M544.54,-103.919C522.916,-90.7678 497.529,-75.3274 475.564,-61.9688"/>
<polygon fill="#0d0e73" stroke="#0d0e73" points="475.976,-60.7856 472.349,-60.0135 474.703,-62.8789 475.976,-60.7856"/>
<text text-anchor="middle" x="544.5" y="-86" font-family="Arial" font-size="10.00" fill="#0d0e73">0.22%</text>
<text text-anchor="middle" x="544.5" y="-73" font-family="Arial" font-size="10.00" fill="#0d0e73">47254×</text>
</g>
<!-- 10 -->
<g id="node27" class="node"><title>10</title>
<polygon fill="#0d327d" stroke="#0d327d" points="689,-567.5 529,-567.5 529,-520.5 689,-520.5 689,-567.5"/>
<text text-anchor="middle" x="609" y="-554.5" font-family="Arial" font-size="10.00" fill="#ffffff">PerfectMatching::InitGreedy(bool)</text>
<text text-anchor="middle" x="609" y="-541.5" font-family="Arial" font-size="10.00" fill="#ffffff">8.33%</text>
<text text-anchor="middle" x="609" y="-528.5" font-family="Arial" font-size="10.00" fill="#ffffff">(8.33%)</text>
</g>
<!-- 13 -->
<g id="node29" class="node"><title>13</title>
<polygon fill="#0d1f78" stroke="#0d1f78" points="880,-567.5 698,-567.5 698,-520.5 880,-520.5 880,-567.5"/>
<text text-anchor="middle" x="789" y="-554.5" font-family="Arial" font-size="10.00" fill="#ffffff">PerfectMatching::AddEdge(int, int, int)</text>
<text text-anchor="middle" x="789" y="-541.5" font-family="Arial" font-size="10.00" fill="#ffffff">4.17%</text>
<text text-anchor="middle" x="789" y="-528.5" font-family="Arial" font-size="10.00" fill="#ffffff">(4.17%)</text>
</g>
</g>
</svg>
