<?xml version="1.0" encoding="UTF-8" standalone="no"?>
<!DOCTYPE svg PUBLIC "-//W3C//DTD SVG 1.1//EN"
 "http://www.w3.org/Graphics/SVG/1.1/DTD/svg11.dtd">
<!-- Generated by graphviz version 2.26.3 (20100126.1600)
 -->
<!-- Title: _anonymous_0 Pages: 1 -->
<svg width="1047pt" height="576pt"
 viewBox="0.00 0.00 1047.00 576.00" xmlns="http://www.w3.org/2000/svg" xmlns:xlink="http://www.w3.org/1999/xlink">
<g id="graph1" class="graph" transform="scale(1 1) rotate(0) translate(4 572)">
<title>_anonymous_0</title>
<polygon fill="white" stroke="white" points="-4,5 -4,-572 1044,-572 1044,5 -4,5"/>
<!-- 1 -->
<g id="node1" class="node"><title>1</title>
<polygon fill="#ea8303" stroke="#ea8303" points="814,-476 456,-476 456,-416 814,-416 814,-476"/>
<text text-anchor="middle" x="635" y="-463" font-family="Arial" font-size="10.00" fill="#ffffff">std::vector&lt;bool, std::allocator&lt;bool&gt; &gt;::_M_insert_aux(std::_Bit_iterator, bool)</text>
<text text-anchor="middle" x="635" y="-450" font-family="Arial" font-size="10.00" fill="#ffffff">86.19%</text>
<text text-anchor="middle" x="635" y="-437" font-family="Arial" font-size="10.00" fill="#ffffff">(0.00%)</text>
<text text-anchor="middle" x="635" y="-424" font-family="Arial" font-size="10.00" fill="#ffffff">3×</text>
</g>
<!-- 9 -->
<g id="node3" class="node"><title>9</title>
<polygon fill="#0d3e80" stroke="#0d3e80" points="374,-372 238,-372 238,-312 374,-312 374,-372"/>
<text text-anchor="middle" x="306" y="-359" font-family="Arial" font-size="10.00" fill="#ffffff">Lattice::success(Operator*)</text>
<text text-anchor="middle" x="306" y="-346" font-family="Arial" font-size="10.00" fill="#ffffff">10.58%</text>
<text text-anchor="middle" x="306" y="-333" font-family="Arial" font-size="10.00" fill="#ffffff">(5.99%)</text>
<text text-anchor="middle" x="306" y="-320" font-family="Arial" font-size="10.00" fill="#ffffff">937×</text>
</g>
<!-- 1&#45;&gt;9 -->
<g id="edge2" class="edge"><title>1&#45;&gt;9</title>
<path fill="none" stroke="#0d3e80" stroke-width="0.5" d="M539.84,-415.919C488.04,-399.545 425.012,-379.621 377.449,-364.586"/>
<polygon fill="#0d3e80" stroke="#0d3e80" points="377.759,-363.399 374.052,-363.512 377.02,-365.735 377.759,-363.399"/>
<text text-anchor="middle" x="527" y="-398" font-family="Arial" font-size="10.00" fill="#0d3e80">10.58%</text>
<text text-anchor="middle" x="527" y="-385" font-family="Arial" font-size="10.00" fill="#0d3e80">937×</text>
</g>
<!-- 3 -->
<g id="node5" class="node"><title>3</title>
<polygon fill="#0ba557" stroke="#0ba557" points="651,-268 519,-268 519,-208 651,-208 651,-268"/>
<text text-anchor="middle" x="585" y="-255" font-family="Arial" font-size="10.00" fill="#ffffff">Lattice::Lattice(int, double)</text>
<text text-anchor="middle" x="585" y="-242" font-family="Arial" font-size="10.00" fill="#ffffff">37.67%</text>
<text text-anchor="middle" x="585" y="-229" font-family="Arial" font-size="10.00" fill="#ffffff">(6.36%)</text>
<text text-anchor="middle" x="585" y="-216" font-family="Arial" font-size="10.00" fill="#ffffff">974×</text>
</g>
<!-- 1&#45;&gt;3 -->
<g id="edge4" class="edge"><title>1&#45;&gt;3</title>
<path fill="none" stroke="#0ba557" stroke-width="1.51" d="M627.73,-415.755C618.731,-378.322 603.42,-314.625 593.776,-274.51"/>
<polygon fill="#0ba557" stroke="#0ba557" points="595.781,-273.714 592.279,-268.281 591.629,-274.712 595.781,-273.714"/>
<text text-anchor="middle" x="634" y="-346" font-family="Arial" font-size="10.00" fill="#0ba557">37.67%</text>
<text text-anchor="middle" x="634" y="-333" font-family="Arial" font-size="10.00" fill="#0ba557">974×</text>
</g>
<!-- 4 -->
<g id="node7" class="node"><title>4</title>
<polygon fill="#0ba35d" stroke="#0ba35d" points="775,-372 663,-372 663,-312 775,-312 775,-372"/>
<text text-anchor="middle" x="719" y="-359" font-family="Arial" font-size="10.00" fill="#ffffff">Lattice::correctMesh()</text>
<text text-anchor="middle" x="719" y="-346" font-family="Arial" font-size="10.00" fill="#ffffff">36.52%</text>
<text text-anchor="middle" x="719" y="-333" font-family="Arial" font-size="10.00" fill="#ffffff">(2.84%)</text>
<text text-anchor="middle" x="719" y="-320" font-family="Arial" font-size="10.00" fill="#ffffff">934×</text>
</g>
<!-- 1&#45;&gt;4 -->
<g id="edge6" class="edge"><title>1&#45;&gt;4</title>
<path fill="none" stroke="#0ba35d" stroke-width="1.46" d="M659.296,-415.919C669.135,-403.738 680.56,-389.593 690.765,-376.957"/>
<polygon fill="#0ba35d" stroke="#0ba35d" points="692.622,-378.001 694.758,-372.014 689.355,-375.362 692.622,-378.001"/>
<text text-anchor="middle" x="704" y="-398" font-family="Arial" font-size="10.00" fill="#0ba35d">36.52%</text>
<text text-anchor="middle" x="704" y="-385" font-family="Arial" font-size="10.00" fill="#0ba35d">934×</text>
</g>
<!-- 17 -->
<g id="node9" class="node"><title>17</title>
<polygon fill="#0d1375" stroke="#0d1375" points="876,-372 784,-372 784,-312 876,-312 876,-372"/>
<text text-anchor="middle" x="830" y="-359" font-family="Arial" font-size="10.00" fill="#ffffff">Lattice::~Lattice()</text>
<text text-anchor="middle" x="830" y="-346" font-family="Arial" font-size="10.00" fill="#ffffff">1.42%</text>
<text text-anchor="middle" x="830" y="-333" font-family="Arial" font-size="10.00" fill="#ffffff">(1.42%)</text>
<text text-anchor="middle" x="830" y="-320" font-family="Arial" font-size="10.00" fill="#ffffff">925×</text>
</g>
<!-- 1&#45;&gt;17 -->
<g id="edge8" class="edge"><title>1&#45;&gt;17</title>
<path fill="none" stroke="#0d1375" stroke-width="0.5" d="M705.044,-415.946C711.165,-413.022 717.224,-410.018 723,-407 742.303,-396.913 762.888,-384.764 780.794,-373.713"/>
<polygon fill="#0d1375" stroke="#0d1375" points="781.543,-374.69 783.874,-371.806 780.254,-372.607 781.543,-374.69"/>
<text text-anchor="middle" x="782" y="-398" font-family="Arial" font-size="10.00" fill="#0d1375">1.42%</text>
<text text-anchor="middle" x="782" y="-385" font-family="Arial" font-size="10.00" fill="#0d1375">925×</text>
</g>
<!-- 15 -->
<g id="node30" class="node"><title>15</title>
<polygon fill="#0d1776" stroke="#0d1776" points="146,-268 7.10543e-14,-268 0,-208 146,-208 146,-268"/>
<text text-anchor="middle" x="73" y="-255" font-family="Arial" font-size="10.00" fill="#ffffff">Lattice::getLogical(std::string)</text>
<text text-anchor="middle" x="73" y="-242" font-family="Arial" font-size="10.00" fill="#ffffff">2.45%</text>
<text text-anchor="middle" x="73" y="-229" font-family="Arial" font-size="10.00" fill="#ffffff">(2.45%)</text>
<text text-anchor="middle" x="73" y="-216" font-family="Arial" font-size="10.00" fill="#ffffff">1787×</text>
</g>
<!-- 9&#45;&gt;15 -->
<g id="edge32" class="edge"><title>9&#45;&gt;15</title>
<path fill="none" stroke="#0d1776" stroke-width="0.5" d="M238.607,-311.919C208.781,-298.606 173.699,-282.947 143.521,-269.477"/>
<polygon fill="#0d1776" stroke="#0d1776" points="143.937,-268.322 140.242,-268.014 142.939,-270.559 143.937,-268.322"/>
<text text-anchor="middle" x="232" y="-294" font-family="Arial" font-size="10.00" fill="#0d1776">2.45%</text>
<text text-anchor="middle" x="232" y="-281" font-family="Arial" font-size="10.00" fill="#0d1776">1787×</text>
</g>
<!-- 16 -->
<g id="node32" class="node"><title>16</title>
<polygon fill="#0d1375" stroke="#0d1375" points="291,-268 155,-268 155,-208 291,-208 291,-268"/>
<text text-anchor="middle" x="223" y="-255" font-family="Arial" font-size="10.00" fill="#ffffff">Operator::pushBack(pauli&amp;)</text>
<text text-anchor="middle" x="223" y="-242" font-family="Arial" font-size="10.00" fill="#ffffff">1.42%</text>
<text text-anchor="middle" x="223" y="-229" font-family="Arial" font-size="10.00" fill="#ffffff">(1.40%)</text>
<text text-anchor="middle" x="223" y="-216" font-family="Arial" font-size="10.00" fill="#ffffff">10574357×</text>
</g>
<!-- 9&#45;&gt;16 -->
<g id="edge34" class="edge"><title>9&#45;&gt;16</title>
<path fill="none" stroke="#0d1375" stroke-width="0.5" d="M281.993,-311.919C271.755,-299.091 259.78,-284.085 249.303,-270.958"/>
<polygon fill="#0d1375" stroke="#0d1375" points="250.094,-269.985 246.953,-268.014 248.179,-271.513 250.094,-269.985"/>
<text text-anchor="middle" x="299.5" y="-294" font-family="Arial" font-size="10.00" fill="#0d1375">1.42%</text>
<text text-anchor="middle" x="299.5" y="-281" font-family="Arial" font-size="10.00" fill="#0d1375">10574357×</text>
</g>
<!-- 18 -->
<g id="node34" class="node"><title>18</title>
<polygon fill="#0d1074" stroke="#0d1074" points="510,-268 300,-268 300,-208 510,-208 510,-268"/>
<text text-anchor="middle" x="405" y="-255" font-family="Arial" font-size="10.00" fill="#ffffff">operator*(Operator const&amp;, Operator const&amp;)</text>
<text text-anchor="middle" x="405" y="-242" font-family="Arial" font-size="10.00" fill="#ffffff">0.70%</text>
<text text-anchor="middle" x="405" y="-229" font-family="Arial" font-size="10.00" fill="#ffffff">(0.69%)</text>
<text text-anchor="middle" x="405" y="-216" font-family="Arial" font-size="10.00" fill="#ffffff">1053×</text>
</g>
<!-- 9&#45;&gt;18 -->
<g id="edge36" class="edge"><title>9&#45;&gt;18</title>
<path fill="none" stroke="#0d1074" stroke-width="0.5" d="M334.635,-311.919C346.948,-298.983 361.371,-283.833 373.941,-270.627"/>
<polygon fill="#0d1074" stroke="#0d1074" points="374.904,-271.393 376.429,-268.014 373.129,-269.704 374.904,-271.393"/>
<text text-anchor="middle" x="382" y="-294" font-family="Arial" font-size="10.00" fill="#0d1074">0.70%</text>
<text text-anchor="middle" x="382" y="-281" font-family="Arial" font-size="10.00" fill="#0d1074">1053×</text>
</g>
<!-- 11 -->
<g id="node13" class="node"><title>11</title>
<polygon fill="#0d2d7c" stroke="#0d2d7c" points="492,-164 318,-164 318,-104 492,-104 492,-164"/>
<text text-anchor="middle" x="405" y="-151" font-family="Arial" font-size="10.00" fill="#ffffff">Operator::Operator(Operator const&amp;)</text>
<text text-anchor="middle" x="405" y="-138" font-family="Arial" font-size="10.00" fill="#ffffff">7.15%</text>
<text text-anchor="middle" x="405" y="-125" font-family="Arial" font-size="10.00" fill="#ffffff">(2.78%)</text>
<text text-anchor="middle" x="405" y="-112" font-family="Arial" font-size="10.00" fill="#ffffff">4621263×</text>
</g>
<!-- 3&#45;&gt;11 -->
<g id="edge12" class="edge"><title>3&#45;&gt;11</title>
<path fill="none" stroke="#0d2d7c" stroke-width="0.5" d="M532.937,-207.919C510.082,-194.714 483.232,-179.201 460.047,-165.805"/>
<polygon fill="#0d2d7c" stroke="#0d2d7c" points="460.59,-164.704 456.946,-164.014 459.364,-166.825 460.59,-164.704"/>
<text text-anchor="middle" x="538.5" y="-190" font-family="Arial" font-size="10.00" fill="#0d2d7c">7.15%</text>
<text text-anchor="middle" x="538.5" y="-177" font-family="Arial" font-size="10.00" fill="#0d2d7c">4621263×</text>
</g>
<!-- 12 -->
<g id="node15" class="node"><title>12</title>
<polygon fill="#0d2179" stroke="#0d2179" points="675,-164 501,-164 501,-104 675,-104 675,-164"/>
<text text-anchor="middle" x="588" y="-151" font-family="Arial" font-size="10.00" fill="#ffffff">Operator::generateRandom(double&amp;)</text>
<text text-anchor="middle" x="588" y="-138" font-family="Arial" font-size="10.00" fill="#ffffff">4.73%</text>
<text text-anchor="middle" x="588" y="-125" font-family="Arial" font-size="10.00" fill="#ffffff">(4.73%)</text>
<text text-anchor="middle" x="588" y="-112" font-family="Arial" font-size="10.00" fill="#ffffff">5404313×</text>
</g>
<!-- 3&#45;&gt;12 -->
<g id="edge14" class="edge"><title>3&#45;&gt;12</title>
<path fill="none" stroke="#0d2179" stroke-width="0.5" d="M585.868,-207.919C586.232,-195.307 586.656,-180.589 587.03,-167.621"/>
<polygon fill="#0d2179" stroke="#0d2179" points="588.258,-167.547 587.134,-164.014 585.809,-167.477 588.258,-167.547"/>
<text text-anchor="middle" x="608.5" y="-190" font-family="Arial" font-size="10.00" fill="#0d2179">4.73%</text>
<text text-anchor="middle" x="608.5" y="-177" font-family="Arial" font-size="10.00" fill="#0d2179">5404313×</text>
</g>
<!-- 5 -->
<g id="node17" class="node"><title>5</title>
<polygon fill="#0c958d" stroke="#0c958d" points="798,-164 684,-164 684,-104 798,-104 798,-164"/>
<text text-anchor="middle" x="741" y="-151" font-family="Arial" font-size="10.00" fill="#ffffff">Operator::Operator(int)</text>
<text text-anchor="middle" x="741" y="-138" font-family="Arial" font-size="10.00" fill="#ffffff">26.47%</text>
<text text-anchor="middle" x="741" y="-125" font-family="Arial" font-size="10.00" fill="#ffffff">(9.19%)</text>
<text text-anchor="middle" x="741" y="-112" font-family="Arial" font-size="10.00" fill="#ffffff">12568230×</text>
</g>
<!-- 3&#45;&gt;5 -->
<g id="edge16" class="edge"><title>3&#45;&gt;5</title>
<path fill="none" stroke="#0c708c" stroke-width="0.78" d="M630.122,-207.919C649.525,-194.983 672.251,-179.833 692.059,-166.627"/>
<polygon fill="#0c708c" stroke="#0c708c" points="693.173,-167.736 695.98,-164.014 691.464,-165.173 693.173,-167.736"/>
<text text-anchor="middle" x="703.5" y="-190" font-family="Arial" font-size="10.00" fill="#0c708c">19.43%</text>
<text text-anchor="middle" x="703.5" y="-177" font-family="Arial" font-size="10.00" fill="#0c708c">9224999×</text>
</g>
<!-- 8 -->
<g id="node19" class="node"><title>8</title>
<polygon fill="#0c5787" stroke="#0c5787" points="822,-268 660,-268 660,-208 822,-208 822,-268"/>
<text text-anchor="middle" x="741" y="-255" font-family="Arial" font-size="10.00" fill="#ffffff">Lattice::SQsyndromeZZZZ(int, int)</text>
<text text-anchor="middle" x="741" y="-242" font-family="Arial" font-size="10.00" fill="#ffffff">15.28%</text>
<text text-anchor="middle" x="741" y="-229" font-family="Arial" font-size="10.00" fill="#ffffff">(8.77%)</text>
<text text-anchor="middle" x="741" y="-216" font-family="Arial" font-size="10.00" fill="#ffffff">915416×</text>
</g>
<!-- 4&#45;&gt;8 -->
<g id="edge18" class="edge"><title>4&#45;&gt;8</title>
<path fill="none" stroke="#0c5787" stroke-width="0.61" d="M725.363,-311.919C728.008,-299.415 731.091,-284.841 733.817,-271.954"/>
<polygon fill="#0c5787" stroke="#0c5787" points="735.179,-272.112 734.651,-268.014 732.508,-271.547 735.179,-272.112"/>
<text text-anchor="middle" x="752" y="-294" font-family="Arial" font-size="10.00" fill="#0c5787">15.28%</text>
<text text-anchor="middle" x="752" y="-281" font-family="Arial" font-size="10.00" fill="#0c5787">915416×</text>
</g>
<!-- 7 -->
<g id="node21" class="node"><title>7</title>
<polygon fill="#0c698b" stroke="#0c698b" points="1019,-268 831,-268 831,-208 1019,-208 1019,-268"/>
<text text-anchor="middle" x="925" y="-255" font-family="Arial" font-size="10.00" fill="#ffffff">Lattice::OCTsyndromeZZZZZZZZ(int, int)</text>
<text text-anchor="middle" x="925" y="-242" font-family="Arial" font-size="10.00" fill="#ffffff">18.31%</text>
<text text-anchor="middle" x="925" y="-229" font-family="Arial" font-size="10.00" fill="#ffffff">(15.16%)</text>
<text text-anchor="middle" x="925" y="-216" font-family="Arial" font-size="10.00" fill="#ffffff">454823×</text>
</g>
<!-- 4&#45;&gt;7 -->
<g id="edge20" class="edge"><title>4&#45;&gt;7</title>
<path fill="none" stroke="#0c698b" stroke-width="0.73" d="M775.018,-313.719C801.704,-300.246 833.745,-284.07 861.348,-270.135"/>
<polygon fill="#0c698b" stroke="#0c698b" points="862.227,-271.377 865.388,-268.096 860.871,-268.69 862.227,-271.377"/>
<text text-anchor="middle" x="866" y="-294" font-family="Arial" font-size="10.00" fill="#0c698b">18.31%</text>
<text text-anchor="middle" x="866" y="-281" font-family="Arial" font-size="10.00" fill="#0c698b">454823×</text>
</g>
<!-- 2 -->
<g id="node10" class="node"><title>2</title>
<polygon fill="#ea8303" stroke="#ea8303" points="679,-567.5 591,-567.5 591,-520.5 679,-520.5 679,-567.5"/>
<text text-anchor="middle" x="635" y="-554.5" font-family="Arial" font-size="10.00" fill="#ffffff">Simulation::run()</text>
<text text-anchor="middle" x="635" y="-541.5" font-family="Arial" font-size="10.00" fill="#ffffff">86.19%</text>
<text text-anchor="middle" x="635" y="-528.5" font-family="Arial" font-size="10.00" fill="#ffffff">(0.00%)</text>
</g>
<!-- 2&#45;&gt;1 -->
<g id="edge10" class="edge"><title>2&#45;&gt;1</title>
<path fill="none" stroke="#ea8303" stroke-width="3.45" d="M635,-520.277C635,-509.921 635,-497.491 635,-485.788"/>
<polygon fill="#ea8303" stroke="#ea8303" points="638.255,-485.49 635,-476.19 631.745,-485.49 638.255,-485.49"/>
<text text-anchor="middle" x="652" y="-502" font-family="Arial" font-size="10.00" fill="#ea8303">86.19%</text>
<text text-anchor="middle" x="652" y="-489" font-family="Arial" font-size="10.00" fill="#ea8303">3×</text>
</g>
<!-- 6 -->
<g id="node23" class="node"><title>6</title>
<polygon fill="#0c7e8f" stroke="#0c7e8f" points="944,-60 270,-60 270,-3.19744e-14 944,-1.06581e-14 944,-60"/>
<text text-anchor="middle" x="607" y="-47" font-family="Arial" font-size="10.00" fill="#ffffff">std::vector&lt;pauli, std::allocator&lt;pauli&gt; &gt;::_M_insert_aux(__gnu_cxx::__normal_iterator&lt;pauli*, std::vector&lt;pauli, std::allocator&lt;pauli&gt; &gt; &gt;, pauli const&amp;)</text>
<text text-anchor="middle" x="607" y="-34" font-family="Arial" font-size="10.00" fill="#ffffff">21.68%</text>
<text text-anchor="middle" x="607" y="-21" font-family="Arial" font-size="10.00" fill="#ffffff">(21.68%)</text>
<text text-anchor="middle" x="607" y="-8" font-family="Arial" font-size="10.00" fill="#ffffff">25719888×</text>
</g>
<!-- 11&#45;&gt;6 -->
<g id="edge38" class="edge"><title>11&#45;&gt;6</title>
<path fill="none" stroke="#0d2078" stroke-width="0.5" d="M463.427,-103.919C489.18,-90.66 519.452,-75.0741 545.544,-61.6407"/>
<polygon fill="#0d2078" stroke="#0d2078" points="546.153,-62.7048 548.705,-60.0135 545.032,-60.5265 546.153,-62.7048"/>
<text text-anchor="middle" x="552.5" y="-86" font-family="Arial" font-size="10.00" fill="#0d2078">4.37%</text>
<text text-anchor="middle" x="552.5" y="-73" font-family="Arial" font-size="10.00" fill="#0d2078">5183465×</text>
</g>
<!-- 5&#45;&gt;6 -->
<g id="edge22" class="edge"><title>5&#45;&gt;6</title>
<path fill="none" stroke="#0c6389" stroke-width="0.69" d="M702.242,-103.919C685.575,-90.9834 666.054,-75.833 649.039,-62.6274"/>
<polygon fill="#0c6389" stroke="#0c6389" points="649.891,-61.4274 645.671,-60.0135 648.088,-63.75 649.891,-61.4274"/>
<text text-anchor="middle" x="714.5" y="-86" font-family="Arial" font-size="10.00" fill="#0c6389">17.27%</text>
<text text-anchor="middle" x="714.5" y="-73" font-family="Arial" font-size="10.00" fill="#0c6389">20491528×</text>
</g>
<!-- 8&#45;&gt;5 -->
<g id="edge28" class="edge"><title>8&#45;&gt;5</title>
<path fill="none" stroke="#0d2179" stroke-width="0.5" d="M741,-207.919C741,-195.307 741,-180.589 741,-167.621"/>
<polygon fill="#0d2179" stroke="#0d2179" points="742.225,-167.513 741,-164.014 739.775,-167.514 742.225,-167.513"/>
<text text-anchor="middle" x="762.5" y="-190" font-family="Arial" font-size="10.00" fill="#0d2179">4.74%</text>
<text text-anchor="middle" x="762.5" y="-177" font-family="Arial" font-size="10.00" fill="#0d2179">2250327×</text>
</g>
<!-- 14 -->
<g id="node26" class="node"><title>14</title>
<polygon fill="#0d1876" stroke="#0d1876" points="977,-164 827,-164 827,-104 977,-104 977,-164"/>
<text text-anchor="middle" x="902" y="-151" font-family="Arial" font-size="10.00" fill="#ffffff">Operator::commute(Operator&amp;)</text>
<text text-anchor="middle" x="902" y="-138" font-family="Arial" font-size="10.00" fill="#ffffff">2.64%</text>
<text text-anchor="middle" x="902" y="-125" font-family="Arial" font-size="10.00" fill="#ffffff">(2.64%)</text>
<text text-anchor="middle" x="902" y="-112" font-family="Arial" font-size="10.00" fill="#ffffff">1526466×</text>
</g>
<!-- 8&#45;&gt;14 -->
<g id="edge30" class="edge"><title>8&#45;&gt;14</title>
<path fill="none" stroke="#0d1475" stroke-width="0.5" d="M776.705,-207.705C779.89,-204.809 783.03,-201.878 786,-199 797.293,-188.056 797.139,-182.05 810,-173 814.265,-169.999 818.797,-167.165 823.475,-164.5"/>
<polygon fill="#0d1475" stroke="#0d1475" points="824.275,-165.456 826.735,-162.682 823.082,-163.317 824.275,-165.456"/>
<text text-anchor="middle" x="831.5" y="-190" font-family="Arial" font-size="10.00" fill="#0d1475">1.78%</text>
<text text-anchor="middle" x="831.5" y="-177" font-family="Arial" font-size="10.00" fill="#0d1475">1029189×</text>
</g>
<!-- 7&#45;&gt;5 -->
<g id="edge24" class="edge"><title>7&#45;&gt;5</title>
<path fill="none" stroke="#0d1676" stroke-width="0.5" d="M875.591,-207.985C872.188,-205.133 868.945,-202.13 866,-199 856.858,-189.284 861.422,-181.328 851,-173 840.458,-164.575 834.777,-168.345 822,-164 815.411,-161.759 808.55,-159.345 801.731,-156.894"/>
<polygon fill="#0d1676" stroke="#0d1676" points="802.096,-155.724 798.388,-155.689 801.265,-158.028 802.096,-155.724"/>
<text text-anchor="middle" x="887.5" y="-190" font-family="Arial" font-size="10.00" fill="#0d1676">2.29%</text>
<text text-anchor="middle" x="887.5" y="-177" font-family="Arial" font-size="10.00" fill="#0d1676">1089153×</text>
</g>
<!-- 7&#45;&gt;14 -->
<g id="edge26" class="edge"><title>7&#45;&gt;14</title>
<path fill="none" stroke="#0d1074" stroke-width="0.5" d="M918.347,-207.919C915.558,-195.307 912.303,-180.589 909.436,-167.621"/>
<polygon fill="#0d1074" stroke="#0d1074" points="910.59,-167.166 908.638,-164.014 908.197,-167.695 910.59,-167.166"/>
<text text-anchor="middle" x="936" y="-190" font-family="Arial" font-size="10.00" fill="#0d1074">0.85%</text>
<text text-anchor="middle" x="936" y="-177" font-family="Arial" font-size="10.00" fill="#0d1074">494507×</text>
</g>
<!-- 10 -->
<g id="node35" class="node"><title>10</title>
<polygon fill="#0d367e" stroke="#0d367e" points="870,-567.5 688,-567.5 688,-520.5 870,-520.5 870,-567.5"/>
<text text-anchor="middle" x="779" y="-554.5" font-family="Arial" font-size="10.00" fill="#ffffff">PerfectMatching::AddEdge(int, int, int)</text>
<text text-anchor="middle" x="779" y="-541.5" font-family="Arial" font-size="10.00" fill="#ffffff">9.03%</text>
<text text-anchor="middle" x="779" y="-528.5" font-family="Arial" font-size="10.00" fill="#ffffff">(9.03%)</text>
</g>
<!-- 13 -->
<g id="node37" class="node"><title>13</title>
<polygon fill="#0d1f78" stroke="#0d1f78" points="1039,-567.5 879,-567.5 879,-520.5 1039,-520.5 1039,-567.5"/>
<text text-anchor="middle" x="959" y="-554.5" font-family="Arial" font-size="10.00" fill="#ffffff">PerfectMatching::InitGreedy(bool)</text>
<text text-anchor="middle" x="959" y="-541.5" font-family="Arial" font-size="10.00" fill="#ffffff">4.21%</text>
<text text-anchor="middle" x="959" y="-528.5" font-family="Arial" font-size="10.00" fill="#ffffff">(4.21%)</text>
</g>
</g>
</svg>
