<?xml version="1.0" encoding="UTF-8" standalone="no"?>
<!DOCTYPE svg PUBLIC "-//W3C//DTD SVG 1.1//EN"
 "http://www.w3.org/Graphics/SVG/1.1/DTD/svg11.dtd">
<!-- Generated by graphviz version 2.26.3 (20100126.1600)
 -->
<!-- Title: _anonymous_0 Pages: 1 -->
<svg width="2309pt" height="368pt"
 viewBox="0.00 0.00 2309.00 368.00" xmlns="http://www.w3.org/2000/svg" xmlns:xlink="http://www.w3.org/1999/xlink">
<g id="graph1" class="graph" transform="scale(1 1) rotate(0) translate(4 364)">
<title>_anonymous_0</title>
<polygon fill="white" stroke="white" points="-4,5 -4,-364 2306,-364 2306,5 -4,5"/>
<!-- 1 -->
<g id="node1" class="node"><title>1</title>
<polygon fill="#0c968b" stroke="#0c968b" points="160,-359.5 8.52651e-14,-359.5 0,-312.5 160,-312.5 160,-359.5"/>
<text text-anchor="middle" x="80" y="-346.5" font-family="Arial" font-size="10.00" fill="#ffffff">PerfectMatching::InitGreedy(bool)</text>
<text text-anchor="middle" x="80" y="-333.5" font-family="Arial" font-size="10.00" fill="#ffffff">26.91%</text>
<text text-anchor="middle" x="80" y="-320.5" font-family="Arial" font-size="10.00" fill="#ffffff">(26.91%)</text>
</g>
<!-- 2 -->
<g id="node2" class="node"><title>2</title>
<polygon fill="#0c688a" stroke="#0c688a" points="435,-359.5 169,-359.5 169,-312.5 435,-312.5 435,-359.5"/>
<text text-anchor="middle" x="302" y="-346.5" font-family="Arial" font-size="10.00" fill="#ffffff">PerfectMatching::GrowTree(PerfectMatching::Node*, bool)</text>
<text text-anchor="middle" x="302" y="-333.5" font-family="Arial" font-size="10.00" fill="#ffffff">18.17%</text>
<text text-anchor="middle" x="302" y="-320.5" font-family="Arial" font-size="10.00" fill="#ffffff">(18.17%)</text>
</g>
<!-- 3 -->
<g id="node3" class="node"><title>3</title>
<polygon fill="#0c5f88" stroke="#0c5f88" points="716,-359.5 444,-359.5 444,-312.5 716,-312.5 716,-359.5"/>
<text text-anchor="middle" x="580" y="-346.5" font-family="Arial" font-size="10.00" fill="#ffffff">PerfectMatching::AugmentBranch(PerfectMatching::Node*)</text>
<text text-anchor="middle" x="580" y="-333.5" font-family="Arial" font-size="10.00" fill="#ffffff">16.58%</text>
<text text-anchor="middle" x="580" y="-320.5" font-family="Arial" font-size="10.00" fill="#ffffff">(16.58%)</text>
</g>
<!-- 4 -->
<g id="node4" class="node"><title>4</title>
<polygon fill="#0c5486" stroke="#0c5486" points="865,-359.5 725,-359.5 725,-312.5 865,-312.5 865,-359.5"/>
<text text-anchor="middle" x="795" y="-346.5" font-family="Arial" font-size="10.00" fill="#ffffff">PerfectMatching::InitGlobal()</text>
<text text-anchor="middle" x="795" y="-333.5" font-family="Arial" font-size="10.00" fill="#ffffff">14.67%</text>
<text text-anchor="middle" x="795" y="-320.5" font-family="Arial" font-size="10.00" fill="#ffffff">(14.67%)</text>
</g>
<!-- 5 -->
<g id="node5" class="node"><title>5</title>
<polygon fill="#0d397f" stroke="#0d397f" points="1056,-359.5 874,-359.5 874,-312.5 1056,-312.5 1056,-359.5"/>
<text text-anchor="middle" x="965" y="-346.5" font-family="Arial" font-size="10.00" fill="#ffffff">PerfectMatching::AddEdge(int, int, int)</text>
<text text-anchor="middle" x="965" y="-333.5" font-family="Arial" font-size="10.00" fill="#ffffff">9.67%</text>
<text text-anchor="middle" x="965" y="-320.5" font-family="Arial" font-size="10.00" fill="#ffffff">(9.67%)</text>
</g>
<!-- 6 -->
<g id="node6" class="node"><title>6</title>
<polygon fill="#0d2d7c" stroke="#0d2d7c" points="1153,-359.5 1065,-359.5 1065,-312.5 1153,-312.5 1153,-359.5"/>
<text text-anchor="middle" x="1109" y="-346.5" font-family="Arial" font-size="10.00" fill="#ffffff">Simulation::run()</text>
<text text-anchor="middle" x="1109" y="-333.5" font-family="Arial" font-size="10.00" fill="#ffffff">7.16%</text>
<text text-anchor="middle" x="1109" y="-320.5" font-family="Arial" font-size="10.00" fill="#ffffff">(0.00%)</text>
</g>
<!-- 11 -->
<g id="node8" class="node"><title>11</title>
<polygon fill="#0d2d7c" stroke="#0d2d7c" points="1482,-164 736,-164 736,-104 1482,-104 1482,-164"/>
<text text-anchor="middle" x="1109" y="-151" font-family="Arial" font-size="10.00" fill="#ffffff">std::vector&lt;Vertex*, std::allocator&lt;Vertex*&gt; &gt;::_M_insert_aux(__gnu_cxx::__normal_iterator&lt;Vertex**, std::vector&lt;Vertex*, std::allocator&lt;Vertex*&gt; &gt; &gt;, Vertex* const&amp;)</text>
<text text-anchor="middle" x="1109" y="-138" font-family="Arial" font-size="10.00" fill="#ffffff">7.15%</text>
<text text-anchor="middle" x="1109" y="-125" font-family="Arial" font-size="10.00" fill="#ffffff">(0.02%)</text>
<text text-anchor="middle" x="1109" y="-112" font-family="Arial" font-size="10.00" fill="#ffffff">154515×</text>
</g>
<!-- 6&#45;&gt;11 -->
<g id="edge2" class="edge"><title>6&#45;&gt;11</title>
<path fill="none" stroke="#0d2a7b" stroke-width="0.5" d="M1091.44,-312.489C1083.18,-299.974 1074.24,-283.912 1070,-268 1063.14,-242.232 1063.6,-233.886 1070,-208 1073.47,-193.964 1080.14,-179.653 1087,-167.404"/>
<polygon fill="#0d2a7b" stroke="#0d2a7b" points="1088.08,-167.983 1088.74,-164.335 1085.95,-166.772 1088.08,-167.983"/>
<text text-anchor="middle" x="1084" y="-242" font-family="Arial" font-size="10.00" fill="#0d2a7b">6.64%</text>
<text text-anchor="middle" x="1084" y="-229" font-family="Arial" font-size="10.00" fill="#0d2a7b">141×</text>
</g>
<!-- 14 -->
<g id="node10" class="node"><title>14</title>
<polygon fill="#0d0f73" stroke="#0d0f73" points="1344,-268 1102,-268 1102,-208 1344,-208 1344,-268"/>
<text text-anchor="middle" x="1223" y="-255" font-family="Arial" font-size="10.00" fill="#ffffff">Simulation::Distance(int, int, double, double, double)</text>
<text text-anchor="middle" x="1223" y="-242" font-family="Arial" font-size="10.00" fill="#ffffff">0.52%</text>
<text text-anchor="middle" x="1223" y="-229" font-family="Arial" font-size="10.00" fill="#ffffff">(0.01%)</text>
<text text-anchor="middle" x="1223" y="-216" font-family="Arial" font-size="10.00" fill="#ffffff">11×</text>
</g>
<!-- 6&#45;&gt;14 -->
<g id="edge4" class="edge"><title>6&#45;&gt;14</title>
<path fill="none" stroke="#0d0f73" stroke-width="0.5" d="M1136.6,-312.277C1151.17,-299.746 1169.28,-284.179 1185.15,-270.538"/>
<polygon fill="#0d0f73" stroke="#0d0f73" points="1186.03,-271.401 1187.88,-268.19 1184.43,-269.543 1186.03,-271.401"/>
<text text-anchor="middle" x="1190" y="-294" font-family="Arial" font-size="10.00" fill="#0d0f73">0.52%</text>
<text text-anchor="middle" x="1190" y="-281" font-family="Arial" font-size="10.00" fill="#0d0f73">11×</text>
</g>
<!-- 11&#45;&gt;11 -->
<g id="edge10" class="edge"><title>11&#45;&gt;11</title>
<path fill="none" stroke="#0d2d7c" stroke-width="0.5" d="M1482.06,-137.858C1487.84,-136.733 1491,-135.447 1491,-134 1491,-132.915 1489.22,-131.92 1485.9,-131.016"/>
<polygon fill="#0d2d7c" stroke="#0d2d7c" points="1485.74,-129.724 1482.06,-130.142 1485.2,-132.113 1485.74,-129.724"/>
<text text-anchor="middle" x="1502" y="-131.5" font-family="Arial" font-size="10.00" fill="#0d2d7c">154×</text>
</g>
<!-- 8 -->
<g id="node11" class="node"><title>8</title>
<polygon fill="#0d277a" stroke="#0d277a" points="1198,-60 926,-60 926,-3.19744e-14 1198,-1.06581e-14 1198,-60"/>
<text text-anchor="middle" x="1062" y="-47" font-family="Arial" font-size="10.00" fill="#ffffff">Lattice::evolute_and_correct(double, double, double, float**)</text>
<text text-anchor="middle" x="1062" y="-34" font-family="Arial" font-size="10.00" fill="#ffffff">6.02%</text>
<text text-anchor="middle" x="1062" y="-21" font-family="Arial" font-size="10.00" fill="#ffffff">(5.13%)</text>
<text text-anchor="middle" x="1062" y="-8" font-family="Arial" font-size="10.00" fill="#ffffff">10645×</text>
</g>
<!-- 11&#45;&gt;8 -->
<g id="edge8" class="edge"><title>11&#45;&gt;8</title>
<path fill="none" stroke="#0d277a" stroke-width="0.5" d="M1066.45,-103.802C1064.33,-101.039 1062.48,-98.1024 1061,-95 1056.47,-85.4782 1055.38,-74.2479 1055.82,-63.8248"/>
<polygon fill="#0d277a" stroke="#0d277a" points="1057.04,-63.8906 1056.03,-60.3246 1054.6,-63.7466 1057.04,-63.8906"/>
<text text-anchor="middle" x="1077.5" y="-86" font-family="Arial" font-size="10.00" fill="#0d277a">6.02%</text>
<text text-anchor="middle" x="1077.5" y="-73" font-family="Arial" font-size="10.00" fill="#0d277a">10645×</text>
</g>
<!-- 13 -->
<g id="node18" class="node"><title>13</title>
<polygon fill="#0d1074" stroke="#0d1074" points="2301,-60 1207,-60 1207,-3.19744e-14 2301,-1.06581e-14 2301,-60"/>
<text text-anchor="middle" x="1754" y="-47" font-family="Arial" font-size="10.00" fill="#ffffff">DijkstraComputePaths(int, std::vector&lt;std::vector&lt;neighbor, std::allocator&lt;neighbor&gt; &gt;, std::allocator&lt;std::vector&lt;neighbor, std::allocator&lt;neighbor&gt; &gt; &gt; &gt; const&amp;, std::vector&lt;double, std::allocator&lt;double&gt; &gt;&amp;, std::vector&lt;int, std::allocator&lt;int&gt; &gt;&amp;)</text>
<text text-anchor="middle" x="1754" y="-34" font-family="Arial" font-size="10.00" fill="#ffffff">0.80%</text>
<text text-anchor="middle" x="1754" y="-21" font-family="Arial" font-size="10.00" fill="#ffffff">(0.29%)</text>
<text text-anchor="middle" x="1754" y="-8" font-family="Arial" font-size="10.00" fill="#ffffff">10277×</text>
</g>
<!-- 11&#45;&gt;13 -->
<g id="edge12" class="edge"><title>11&#45;&gt;13</title>
<path fill="none" stroke="#0d1074" stroke-width="0.5" d="M1295.13,-103.989C1379.63,-90.3628 1479.45,-74.2678 1564.38,-60.5749"/>
<polygon fill="#0d1074" stroke="#0d1074" points="1564.64,-61.7735 1567.9,-60.0069 1564.25,-59.3548 1564.64,-61.7735"/>
<text text-anchor="middle" x="1524.5" y="-86" font-family="Arial" font-size="10.00" fill="#0d1074">0.80%</text>
<text text-anchor="middle" x="1524.5" y="-73" font-family="Arial" font-size="10.00" fill="#0d1074">10277×</text>
</g>
<!-- 14&#45;&gt;11 -->
<g id="edge14" class="edge"><title>14&#45;&gt;11</title>
<path fill="none" stroke="#0d0f73" stroke-width="0.5" d="M1190.03,-207.919C1175.85,-194.983 1159.24,-179.833 1144.76,-166.627"/>
<polygon fill="#0d0f73" stroke="#0d0f73" points="1145.31,-165.467 1141.9,-164.014 1143.66,-167.277 1145.31,-165.467"/>
<text text-anchor="middle" x="1193" y="-190" font-family="Arial" font-size="10.00" fill="#0d0f73">0.52%</text>
<text text-anchor="middle" x="1193" y="-177" font-family="Arial" font-size="10.00" fill="#0d0f73">11×</text>
</g>
<!-- 8&#45;&gt;11 -->
<g id="edge6" class="edge"><title>8&#45;&gt;11</title>
<path fill="none" stroke="#0d277a" stroke-width="0.5" d="M1090.7,-60.0141C1092.68,-62.9244 1094.49,-65.9372 1096,-69 1100.75,-78.6485 1103.76,-89.913 1105.67,-100.328"/>
<polygon fill="#0d277a" stroke="#0d277a" points="1104.47,-100.586 1106.28,-103.825 1106.89,-100.166 1104.47,-100.586"/>
<text text-anchor="middle" x="1123" y="-79.5" font-family="Arial" font-size="10.00" fill="#0d277a">106790×</text>
</g>
<!-- 9 -->
<g id="node13" class="node"><title>9</title>
<polygon fill="#0d1b77" stroke="#0d1b77" points="1392,-359.5 1162,-359.5 1162,-312.5 1392,-312.5 1392,-359.5"/>
<text text-anchor="middle" x="1277" y="-346.5" font-family="Arial" font-size="10.00" fill="#ffffff">PerfectMatching::Shrink(PerfectMatching::Edge*)</text>
<text text-anchor="middle" x="1277" y="-333.5" font-family="Arial" font-size="10.00" fill="#ffffff">3.27%</text>
<text text-anchor="middle" x="1277" y="-320.5" font-family="Arial" font-size="10.00" fill="#ffffff">(3.27%)</text>
</g>
<!-- 10 -->
<g id="node14" class="node"><title>10</title>
<polygon fill="#0d1676" stroke="#0d1676" points="1635,-359.5 1401,-359.5 1401,-312.5 1635,-312.5 1635,-359.5"/>
<text text-anchor="middle" x="1518" y="-346.5" font-family="Arial" font-size="10.00" fill="#ffffff">PerfectMatching::Expand(PerfectMatching::Node*)</text>
<text text-anchor="middle" x="1518" y="-333.5" font-family="Arial" font-size="10.00" fill="#ffffff">2.29%</text>
<text text-anchor="middle" x="1518" y="-320.5" font-family="Arial" font-size="10.00" fill="#ffffff">(2.29%)</text>
</g>
<!-- 12 -->
<g id="node19" class="node"><title>12</title>
<polygon fill="#0d1174" stroke="#0d1174" points="1784,-359.5 1644,-359.5 1644,-312.5 1784,-312.5 1784,-359.5"/>
<text text-anchor="middle" x="1714" y="-346.5" font-family="Arial" font-size="10.00" fill="#ffffff">PerfectMatching::Solve(bool)</text>
<text text-anchor="middle" x="1714" y="-333.5" font-family="Arial" font-size="10.00" fill="#ffffff">0.95%</text>
<text text-anchor="middle" x="1714" y="-320.5" font-family="Arial" font-size="10.00" fill="#ffffff">(0.95%)</text>
</g>
</g>
</svg>
